<svg width="1521" height="127" viewBox="0 0 1521 127" fill="none" xmlns="http://www.w3.org/2000/svg">
<path d="M1.39773e-05 123.75V-7.15256e-06H62.625V10.05H6.90001L11.4 6.67499V63.45L6.90001 56.7H59.175V66.75H6.90001L11.4 60V123.75H1.39773e-05ZM89.2606 123.75V46.95H100.211V58.275C102.661 53.775 105.811 50.375 109.661 48.075C113.561 45.725 118.061 44.55 123.161 44.55C125.411 44.55 127.686 44.8 129.986 45.3C132.336 45.8 134.361 46.45 136.061 47.25L131.561 56.475C130.061 55.725 128.336 55.15 126.386 54.75C124.486 54.35 122.661 54.15 120.911 54.15C117.361 54.15 114.011 55.05 110.861 56.85C107.711 58.65 105.136 61 103.136 63.9C101.186 66.75 100.211 69.8 100.211 73.05V123.75H89.2606ZM187.807 126.15C180.607 126.15 174.107 124.4 168.307 120.9C162.557 117.35 157.982 112.5 154.582 106.35C151.232 100.2 149.557 93.175 149.557 85.275C149.557 77.475 151.207 70.525 154.507 64.425C157.857 58.275 162.407 53.425 168.157 49.875C173.957 46.325 180.507 44.55 187.807 44.55C194.757 44.55 201.057 46.175 206.707 49.425C212.357 52.675 216.657 57.175 219.607 62.925V46.95H230.557V123.75H219.607V107.55C216.307 113.35 211.882 117.9 206.332 121.2C200.782 124.5 194.607 126.15 187.807 126.15ZM190.507 116.625C196.257 116.625 201.332 115.3 205.732 112.65C210.182 109.95 213.682 106.25 216.232 101.55C218.782 96.8 220.057 91.4 220.057 85.35C220.057 79.25 218.782 73.85 216.232 69.15C213.732 64.45 210.257 60.775 205.807 58.125C201.357 55.425 196.257 54.075 190.507 54.075C184.757 54.075 179.657 55.425 175.207 58.125C170.757 60.775 167.257 64.45 164.707 69.15C162.157 73.85 160.882 79.25 160.882 85.35C160.882 91.4 162.157 96.8 164.707 101.55C167.257 106.25 170.757 109.95 175.207 112.65C179.657 115.3 184.757 116.625 190.507 116.625ZM262.845 123.75V46.95H273.795V57.45C275.895 53.85 279.145 50.8 283.545 48.3C287.945 45.8 293.32 44.55 299.67 44.55C305.62 44.55 310.745 45.775 315.045 48.225C319.345 50.675 322.645 54.25 324.945 58.95C327.245 63.6 328.395 69.225 328.395 75.825V123.75H317.445V77.925C317.445 69.975 315.595 63.925 311.895 59.775C308.195 55.575 302.97 53.475 296.22 53.475C291.52 53.475 287.495 54.425 284.145 56.325C280.845 58.175 278.295 60.65 276.495 63.75C274.695 66.8 273.795 70.125 273.795 73.725V123.75H262.845ZM394.931 126.15C389.181 126.15 383.781 125.15 378.731 123.15C373.681 121.1 369.256 118.225 365.456 114.525C361.656 110.825 358.681 106.5 356.531 101.55C354.381 96.6 353.306 91.2 353.306 85.35C353.306 79.55 354.356 74.175 356.456 69.225C358.556 64.275 361.481 59.95 365.231 56.25C369.031 52.55 373.456 49.675 378.506 47.625C383.556 45.575 389.031 44.55 394.931 44.55C399.981 44.55 404.781 45.3 409.331 46.8C413.881 48.3 417.806 50.375 421.106 53.025L416.606 60.375C411.006 56.025 404.206 53.85 396.206 53.85C389.906 53.85 384.356 55.25 379.556 58.05C374.806 60.8 371.106 64.575 368.456 69.375C365.806 74.125 364.481 79.45 364.481 85.35C364.481 91.3 365.831 96.675 368.531 101.475C371.231 106.225 374.981 109.975 379.781 112.725C384.581 115.475 390.081 116.85 396.281 116.85C400.181 116.85 403.856 116.3 407.306 115.2C410.806 114.05 413.881 112.425 416.531 110.325L421.106 117.675C417.756 120.275 413.831 122.325 409.331 123.825C404.831 125.375 400.031 126.15 394.931 126.15ZM480.925 126.15C472.875 126.15 465.675 124.375 459.325 120.825C453.025 117.275 448.075 112.45 444.475 106.35C440.875 100.2 439.075 93.3 439.075 85.65C439.075 79.9 440.1 74.55 442.15 69.6C444.25 64.6 447.15 60.225 450.85 56.475C454.55 52.725 458.85 49.8 463.75 47.7C468.65 45.6 473.875 44.55 479.425 44.55C487.025 44.55 493.775 46.225 499.675 49.575C505.625 52.875 510.325 57.45 513.775 63.3C517.275 69.15 519.125 75.9 519.325 83.55C519.325 84.15 519.3 84.65 519.25 85.05C519.25 85.4 519.2 85.85 519.1 86.4H449.95C449.95 92.4 451.3 97.7 454 102.3C456.7 106.9 460.4 110.525 465.1 113.175C469.85 115.775 475.275 117.075 481.375 117.075C487.175 117.075 492.375 115.875 496.975 113.475C501.625 111.025 505.5 107.525 508.6 102.975L516.7 107.325C513.05 113.275 508.075 117.9 501.775 121.2C495.525 124.5 488.575 126.15 480.925 126.15ZM450.55 78.15H508.375C507.725 73.35 506.05 69.125 503.35 65.475C500.65 61.775 497.225 58.875 493.075 56.775C488.975 54.675 484.475 53.625 479.575 53.625C474.525 53.625 469.925 54.675 465.775 56.775C461.625 58.825 458.2 61.7 455.5 65.4C452.85 69.05 451.2 73.3 450.55 78.15ZM564.484 126.15C558.134 126.15 552.534 124.625 547.684 121.575C542.834 118.475 539.059 114.1 536.359 108.45L542.209 102.15C544.609 107.05 547.734 110.875 551.584 113.625C555.434 116.325 559.709 117.675 564.409 117.675C567.559 117.675 570.434 117.025 573.034 115.725C575.684 114.425 577.784 112.575 579.334 110.175C580.934 107.725 581.734 104.825 581.734 101.475C581.734 98.425 580.984 96.025 579.484 94.275C578.034 92.525 575.884 91.025 573.034 89.775C570.234 88.475 566.734 87.025 562.534 85.425C559.284 84.125 556.134 82.65 553.084 81C550.034 79.35 547.509 77.275 545.509 74.775C543.559 72.225 542.584 69 542.584 65.1C542.584 61.15 543.634 57.65 545.734 54.6C547.834 51.5 550.734 49.075 554.434 47.325C558.134 45.525 562.334 44.625 567.034 44.625C571.334 44.625 575.359 45.55 579.109 47.4C582.909 49.25 586.309 51.875 589.309 55.275L584.284 61.65C579.684 55.6 573.959 52.575 567.109 52.575C562.909 52.575 559.484 53.675 556.834 55.875C554.234 58.075 552.934 60.95 552.934 64.5C552.934 67.05 553.759 69.175 555.409 70.875C557.059 72.575 559.209 74.025 561.859 75.225C564.559 76.425 567.459 77.625 570.559 78.825C575.059 80.525 578.959 82.225 582.259 83.925C585.609 85.625 588.209 87.8 590.059 90.45C591.909 93.05 592.834 96.6 592.834 101.1C592.834 106.25 591.634 110.7 589.234 114.45C586.834 118.2 583.484 121.1 579.184 123.15C574.934 125.15 570.034 126.15 564.484 126.15ZM654.502 126.15C648.752 126.15 643.352 125.15 638.302 123.15C633.252 121.1 628.827 118.225 625.027 114.525C621.227 110.825 618.252 106.5 616.102 101.55C613.952 96.6 612.877 91.2 612.877 85.35C612.877 79.55 613.927 74.175 616.027 69.225C618.127 64.275 621.052 59.95 624.802 56.25C628.602 52.55 633.027 49.675 638.077 47.625C643.127 45.575 648.602 44.55 654.502 44.55C659.552 44.55 664.352 45.3 668.902 46.8C673.452 48.3 677.377 50.375 680.677 53.025L676.177 60.375C670.577 56.025 663.777 53.85 655.777 53.85C649.477 53.85 643.927 55.25 639.127 58.05C634.377 60.8 630.677 64.575 628.027 69.375C625.377 74.125 624.052 79.45 624.052 85.35C624.052 91.3 625.402 96.675 628.102 101.475C630.802 106.225 634.552 109.975 639.352 112.725C644.152 115.475 649.652 116.85 655.852 116.85C659.752 116.85 663.427 116.3 666.877 115.2C670.377 114.05 673.452 112.425 676.102 110.325L680.677 117.675C677.327 120.275 673.402 122.325 668.902 123.825C664.402 125.375 659.602 126.15 654.502 126.15ZM741.17 126.15C733.17 126.15 725.945 124.425 719.495 120.975C713.095 117.525 708.02 112.725 704.27 106.575C700.52 100.425 698.645 93.35 698.645 85.35C698.645 77.3 700.52 70.225 704.27 64.125C708.02 57.975 713.095 53.175 719.495 49.725C725.895 46.275 733.12 44.55 741.17 44.55C749.17 44.55 756.37 46.275 762.77 49.725C769.22 53.175 774.32 57.975 778.07 64.125C781.82 70.225 783.695 77.3 783.695 85.35C783.695 93.35 781.82 100.425 778.07 106.575C774.32 112.725 769.22 117.525 762.77 120.975C756.37 124.425 749.17 126.15 741.17 126.15ZM741.17 116.4C747.17 116.4 752.52 115.075 757.22 112.425C761.92 109.775 765.62 106.125 768.32 101.475C771.02 96.775 772.37 91.4 772.37 85.35C772.37 79.3 771.02 73.95 768.32 69.3C765.62 64.6 761.92 60.925 757.22 58.275C752.52 55.625 747.17 54.3 741.17 54.3C735.17 54.3 729.82 55.625 725.12 58.275C720.42 60.925 716.72 64.6 714.02 69.3C711.32 73.95 709.97 79.3 709.97 85.35C709.97 91.35 711.32 96.7 714.02 101.4C716.72 106.1 720.42 109.775 725.12 112.425C729.82 115.075 735.17 116.4 741.17 116.4ZM879.691 123.75L827.791 -7.15256e-06H840.691L884.191 106.575L927.616 -7.15256e-06H940.516L888.616 123.75H879.691ZM987.172 126.15C979.972 126.15 973.472 124.4 967.672 120.9C961.922 117.35 957.347 112.5 953.947 106.35C950.597 100.2 948.922 93.175 948.922 85.275C948.922 77.475 950.572 70.525 953.872 64.425C957.222 58.275 961.772 53.425 967.522 49.875C973.322 46.325 979.872 44.55 987.172 44.55C994.122 44.55 1000.42 46.175 1006.07 49.425C1011.72 52.675 1016.02 57.175 1018.97 62.925V46.95H1029.92V123.75H1018.97V107.55C1015.67 113.35 1011.25 117.9 1005.7 121.2C1000.15 124.5 993.972 126.15 987.172 126.15ZM989.872 116.625C995.622 116.625 1000.7 115.3 1005.1 112.65C1009.55 109.95 1013.05 106.25 1015.6 101.55C1018.15 96.8 1019.42 91.4 1019.42 85.35C1019.42 79.25 1018.15 73.85 1015.6 69.15C1013.1 64.45 1009.62 60.775 1005.17 58.125C1000.72 55.425 995.622 54.075 989.872 54.075C984.122 54.075 979.022 55.425 974.572 58.125C970.122 60.775 966.622 64.45 964.072 69.15C961.522 73.85 960.247 79.25 960.247 85.35C960.247 91.4 961.522 96.8 964.072 101.55C966.622 106.25 970.122 109.95 974.572 112.65C979.022 115.3 984.122 116.625 989.872 116.625ZM1081.57 126.15C1075.22 126.15 1069.62 124.625 1064.77 121.575C1059.92 118.475 1056.15 114.1 1053.45 108.45L1059.3 102.15C1061.7 107.05 1064.82 110.875 1068.67 113.625C1072.52 116.325 1076.8 117.675 1081.5 117.675C1084.65 117.675 1087.52 117.025 1090.12 115.725C1092.77 114.425 1094.87 112.575 1096.42 110.175C1098.02 107.725 1098.82 104.825 1098.82 101.475C1098.82 98.425 1098.07 96.025 1096.57 94.275C1095.12 92.525 1092.97 91.025 1090.12 89.775C1087.32 88.475 1083.82 87.025 1079.62 85.425C1076.37 84.125 1073.22 82.65 1070.17 81C1067.12 79.35 1064.6 77.275 1062.6 74.775C1060.65 72.225 1059.67 69 1059.67 65.1C1059.67 61.15 1060.72 57.65 1062.82 54.6C1064.92 51.5 1067.82 49.075 1071.52 47.325C1075.22 45.525 1079.42 44.625 1084.12 44.625C1088.42 44.625 1092.45 45.55 1096.2 47.4C1100 49.25 1103.4 51.875 1106.4 55.275L1101.37 61.65C1096.77 55.6 1091.05 52.575 1084.2 52.575C1080 52.575 1076.57 53.675 1073.92 55.875C1071.32 58.075 1070.02 60.95 1070.02 64.5C1070.02 67.05 1070.85 69.175 1072.5 70.875C1074.15 72.575 1076.3 74.025 1078.95 75.225C1081.65 76.425 1084.55 77.625 1087.65 78.825C1092.15 80.525 1096.05 82.225 1099.35 83.925C1102.7 85.625 1105.3 87.8 1107.15 90.45C1109 93.05 1109.92 96.6 1109.92 101.1C1109.92 106.25 1108.72 110.7 1106.32 114.45C1103.92 118.2 1100.57 121.1 1096.27 123.15C1092.02 125.15 1087.12 126.15 1081.57 126.15ZM1153.7 126.15C1147.95 126.15 1143.47 124.225 1140.27 120.375C1137.12 116.475 1135.55 111 1135.55 103.95V55.2H1127.75V46.95H1135.55V18.225H1146.5V46.95H1165.62V55.2H1146.5V103.35C1146.5 107.6 1147.32 110.85 1148.97 113.1C1150.62 115.35 1152.97 116.475 1156.02 116.475C1158.97 116.475 1161.57 115.65 1163.82 114L1166.6 122.7C1164.9 123.75 1162.9 124.575 1160.6 125.175C1158.3 125.825 1156 126.15 1153.7 126.15ZM1221.58 126.15C1209.93 126.15 1201.61 123.525 1196.61 118.275C1191.61 113.025 1189.11 104.25 1189.11 91.95V46.95H1200.06V90C1200.06 99.7 1201.71 106.625 1205.01 110.775C1208.31 114.875 1213.83 116.925 1221.58 116.925C1229.38 116.925 1234.91 114.875 1238.16 110.775C1241.46 106.625 1243.11 99.7 1243.11 90V46.95H1254.06V91.95C1254.06 104.25 1251.56 113.025 1246.56 118.275C1241.61 123.525 1233.28 126.15 1221.58 126.15ZM1285.01 123.75V46.95H1295.96V58.275C1298.41 53.775 1301.56 50.375 1305.41 48.075C1309.31 45.725 1313.81 44.55 1318.91 44.55C1321.16 44.55 1323.44 44.8 1325.74 45.3C1328.09 45.8 1330.11 46.45 1331.81 47.25L1327.31 56.475C1325.81 55.725 1324.09 55.15 1322.14 54.75C1320.24 54.35 1318.41 54.15 1316.66 54.15C1313.11 54.15 1309.76 55.05 1306.61 56.85C1303.46 58.65 1300.89 61 1298.89 63.9C1296.94 66.75 1295.96 69.8 1295.96 73.05V123.75H1285.01ZM1341.83 123.75L1398.68 55.95H1347.68V46.95H1418.63L1361.71 114.75H1416.91V123.75H1341.83ZM1478.43 126.15C1470.43 126.15 1463.2 124.425 1456.75 120.975C1450.35 117.525 1445.28 112.725 1441.53 106.575C1437.78 100.425 1435.9 93.35 1435.9 85.35C1435.9 77.3 1437.78 70.225 1441.53 64.125C1445.28 57.975 1450.35 53.175 1456.75 49.725C1463.15 46.275 1470.38 44.55 1478.43 44.55C1486.43 44.55 1493.63 46.275 1500.03 49.725C1506.48 53.175 1511.58 57.975 1515.33 64.125C1519.08 70.225 1520.95 77.3 1520.95 85.35C1520.95 93.35 1519.08 100.425 1515.33 106.575C1511.58 112.725 1506.48 117.525 1500.03 120.975C1493.63 124.425 1486.43 126.15 1478.43 126.15ZM1478.43 116.4C1484.43 116.4 1489.78 115.075 1494.48 112.425C1499.18 109.775 1502.88 106.125 1505.58 101.475C1508.28 96.775 1509.63 91.4 1509.63 85.35C1509.63 79.3 1508.28 73.95 1505.58 69.3C1502.88 64.6 1499.18 60.925 1494.48 58.275C1489.78 55.625 1484.43 54.3 1478.43 54.3C1472.43 54.3 1467.08 55.625 1462.38 58.275C1457.68 60.925 1453.98 64.6 1451.28 69.3C1448.58 73.95 1447.23 79.3 1447.23 85.35C1447.23 91.35 1448.58 96.7 1451.28 101.4C1453.98 106.1 1457.68 109.775 1462.38 112.425C1467.08 115.075 1472.43 116.4 1478.43 116.4Z" fill="white"/>
</svg>
