<svg xmlns="http://www.w3.org/2000/svg" viewBox="0 0 3000 2000" width="3000" height="2000">
	<style>
		tspan { white-space:pre }
		.shp0 { fill: #4a75cb } 
		.shp1 { fill: #afcdfb } 
		.shp2 { fill: #699dee } 
		.shp3 { opacity: 0.2;fill: #699dee } 
		.shp4 { fill: #1c468a } 
		.shp5 { fill: #c65447 } 
		.shp6 { fill: #e9f3fe } 
		.shp7 { fill: #aa413e } 
		.shp8 { fill: #d86713 } 
		.shp9 { fill: #f1a34f } 
		.shp10 { fill: #82b479 } 
		.shp11 { fill: #a8d29f } 
		.shp12 { fill: #ffffff } 
	</style>
	<g id="Layer 1">
		<g id="&lt;Group&gt;">
			<g id="&lt;Group&gt;">
				<g id="&lt;Group&gt;">
					<path id="&lt;Path&gt;" class="shp0" d="M1198.27 916.83L1141.92 1586.88C1137.98 1613.95 1146.09 1627.52 1166.23 1627.57C1199.34 1627.64 1281.76 1627.64 1413.48 1627.57C1388.55 1621.93 1376.24 1612.77 1376.54 1600.09C1376.9 1585.14 1398.85 1355.27 1442.41 910.49L1198.27 916.83Z" />
					<path id="&lt;Path&gt;" class="shp1" d="M1429.51 1615.41C1419.74 1615.44 1231.03 1616.03 1182.65 1615.41C1161.57 1615.15 1157.87 1596.66 1157.7 1584.7C1157.64 1580.88 1157.86 1577.55 1158.34 1574.73L1159.81 1557.31L1163.54 1512.92L1166.84 1473.71L1171.08 1423.32L1174.65 1380.78L1214.69 904.66L1458.83 898.33C1440.48 1084.47 1424.82 1245.29 1411.85 1380.78C1409.68 1403.43 1407.61 1425.14 1405.7 1445.41C1405.08 1451.88 1404.49 1458.2 1403.9 1464.36C1402.1 1483.6 1400.45 1501.25 1399.01 1516.84C1398.26 1525.06 1397.56 1532.7 1396.93 1539.69C1394.44 1567.1 1392.99 1584.6 1392.97 1587.93C1392.96 1589.87 1393.12 1591.68 1393.44 1593.36C1397.45 1614.71 1425.84 1615.41 1429.51 1615.41Z" />
					<path id="&lt;Path&gt;" class="shp1" d="M1777.47 552.21L605.38 552.21L742.64 1103.58L761.44 1179.09L825.37 1435.9L2013.11 1435.9L1777.47 552.21Z" />
					<path id="&lt;Path&gt;" class="shp2" d="M605.37 552.21L586.35 558.55L800.08 1455.08L825.37 1435.91L605.37 552.21Z" />
					<path id="&lt;Path&gt;" class="shp0" d="M800.08 1455.08L1980.51 1455.08L2013.11 1435.91L825.37 1435.91L800.08 1455.08Z" />
					<path id="&lt;Path&gt;" class="shp0" d="M1214.61 1627.82L1470.19 1627.82L1470.19 1615.68L1214.61 1615.68L1214.61 1627.82Z" />
					<path id="&lt;Path&gt;" class="shp0" d="M1405.22 1455.08L1403.9 1464.36L1163.54 1512.92L1166.84 1473.71L1168.41 1455.08L1405.22 1455.08Z" />
					<path id="&lt;Path&gt;" class="shp2" d="M1429.51 1615.41C1419.74 1615.44 1231.03 1616.03 1182.65 1615.41C1161.57 1615.15 1157.87 1596.66 1157.7 1584.7L1396.93 1539.69C1394.44 1567.1 1392.99 1584.6 1392.97 1587.93C1392.96 1589.87 1393.12 1591.68 1393.44 1593.36C1397.45 1614.71 1425.84 1615.41 1429.51 1615.41Z" />
					<path id="&lt;Path&gt;" class="shp3" d="M1331.69 1262.3L825.37 1435.9L782.13 1262.2L1331.69 1262.3Z" />
					<path id="&lt;Path&gt;" class="shp2" d="M1777.47 552.21L605.37 552.21L782.03 1262.2L1967.65 1262.42L1777.47 552.21Z" />
				</g>
				<path id="&lt;Path&gt;" class="shp0" d="M1450.73 1352.2C1447.34 1334.78 1430.48 1320.66 1413.06 1320.66C1395.64 1320.66 1384.27 1334.78 1387.66 1352.2C1391.04 1369.62 1407.9 1383.74 1425.32 1383.74C1442.74 1383.74 1454.11 1369.62 1450.73 1352.2Z" />
				<path id="&lt;Path&gt;" class="shp4" d="M1912.37 1231.64L814.93 1231.64L690.65 736.54L681.12 698.58L672.99 666.19L653.93 590.25L1735.55 590.25L1756.48 666.19L1765.41 698.58L1775.87 736.54L1912.37 1231.64Z" />
				<path id="&lt;Path&gt;" class="shp5" d="M1735.55 590.25L653.93 590.25L672.99 666.19L1756.48 666.19L1735.55 590.25Z" />
				<g id="&lt;Group&gt;">
					<path id="&lt;Path&gt;" class="shp6" d="M705.8 615.08C700.56 615.08 697.37 619.33 698.67 624.57C699.98 629.81 705.29 634.06 710.53 634.06C715.77 634.06 718.97 629.81 717.66 624.57C716.35 619.33 711.04 615.08 705.8 615.08Z" />
					<path id="&lt;Path&gt;" class="shp6" d="M737.34 615.08C732.1 615.08 728.91 619.33 730.21 624.57C731.52 629.81 736.83 634.06 742.07 634.06C747.32 634.06 750.51 629.81 749.2 624.57C747.89 619.33 742.58 615.08 737.34 615.08Z" />
					<path id="&lt;Path&gt;" class="shp6" d="M783.16 624.57C781.86 619.33 776.55 615.08 771.3 615.08C766.06 615.08 762.87 619.33 764.18 624.57C765.48 629.81 770.79 634.06 776.04 634.06C781.28 634.06 784.47 629.81 783.16 624.57Z" />
				</g>
				<g id="&lt;Group&gt;">
					<path id="&lt;Path&gt;" class="shp7" d="M914.27 1554.26L792.3 1554.26C776.61 1554.26 763.88 1541.54 763.88 1525.84L763.88 1403.88C763.88 1388.18 776.61 1375.46 792.3 1375.46L914.27 1375.46C929.97 1375.46 942.69 1388.18 942.69 1403.88L942.69 1525.84C942.69 1541.54 929.97 1554.26 914.27 1554.26Z" />
					<path id="&lt;Path&gt;" class="shp5" d="M937.95 1554.26L815.99 1554.26C800.29 1554.26 787.57 1541.54 787.57 1525.84L787.57 1403.88C787.57 1388.18 800.29 1375.46 815.99 1375.46L937.95 1375.46C953.65 1375.46 966.37 1388.18 966.37 1403.88L966.37 1525.84C966.37 1541.54 953.65 1554.26 937.95 1554.26Z" />
				</g>
				<g id="&lt;Group&gt;">
					<path id="&lt;Path&gt;" class="shp8" d="M1812.12 793.89L1690.15 793.89C1674.45 793.89 1661.73 781.16 1661.73 765.47L1661.73 643.5C1661.73 627.8 1674.45 615.08 1690.15 615.08L1812.12 615.08C1827.81 615.08 1840.54 627.8 1840.54 643.5L1840.54 765.47C1840.54 781.16 1827.81 793.89 1812.12 793.89Z" />
					<path id="&lt;Path&gt;" class="shp9" d="M1835.8 793.89L1713.83 793.89C1698.14 793.89 1685.41 781.16 1685.41 765.47L1685.41 643.5C1685.41 627.8 1698.14 615.08 1713.83 615.08L1835.8 615.08C1851.5 615.08 1864.22 627.8 1864.22 643.5L1864.22 765.47C1864.22 781.16 1851.5 793.89 1835.8 793.89Z" />
				</g>
				<path id="&lt;Path&gt;" class="shp10" d="M635.49 626.12L513.53 626.12C497.83 626.12 485.11 613.4 485.11 597.7L485.11 475.73C485.11 460.04 497.83 447.32 513.53 447.32L635.49 447.32C651.19 447.32 663.91 460.04 663.91 475.73L663.91 597.7C663.91 613.4 651.19 626.12 635.49 626.12Z" />
				<path id="&lt;Path&gt;" class="shp11" d="M659.18 626.12L537.21 626.12C521.51 626.12 508.79 613.4 508.79 597.7L508.79 475.73C508.79 460.04 521.51 447.32 537.21 447.32L659.18 447.32C674.87 447.32 687.6 460.04 687.6 475.73L687.6 597.7C687.6 613.4 674.87 626.12 659.18 626.12Z" />
				<path id="&lt;Compound Path&gt;" fill-rule="evenodd" class="shp12" d="M909.91 1494.48L898.87 1488.41C894.47 1493.11 888.76 1496.57 882.33 1498.22L882.33 1510.78L865.26 1510.78L865.26 1498.22C860.93 1497.11 856.93 1495.18 853.44 1492.61L843.71 1500.59L832.88 1487.4L842.62 1479.4C840.57 1475 839.42 1470.1 839.42 1464.92C839.42 1461.94 839.8 1459.04 840.52 1456.29L829.45 1450.19L837.68 1435.24L848.79 1441.35C853.18 1436.69 858.86 1433.25 865.26 1431.62L865.26 1418.94L882.33 1418.94L882.33 1431.62C886.63 1432.72 890.6 1434.63 894.07 1437.17L903.88 1429.13L914.71 1442.32L904.92 1450.35C907 1454.77 908.16 1459.71 908.16 1464.92C908.16 1467.86 907.79 1470.72 907.09 1473.45L918.14 1479.53L909.91 1494.48ZM894.69 1464.92C894.69 1453.38 885.34 1444.02 873.79 1444.02C862.25 1444.02 852.89 1453.38 852.89 1464.92C852.89 1476.46 862.25 1485.82 873.79 1485.82C885.34 1485.82 894.69 1476.46 894.69 1464.92Z" />
				<g id="&lt;Group&gt;">
					<path id="&lt;Compound Path&gt;" class="shp12" d="M1693.52 702.09L1748.99 676.32L1748.99 688.57L1707.04 706.95L1707.04 707.18L1748.99 725.55L1748.99 737.8L1693.52 712.03L1693.52 702.09Z" />
					<path id="&lt;Compound Path&gt;" class="shp12" d="M1757.54 749.97L1782.27 666.19L1793.94 666.19L1769.21 749.97L1757.54 749.97Z" />
					<path id="&lt;Compound Path&gt;" class="shp12" d="M1856.11 712.38L1800.64 737.8L1800.64 725.55L1843.52 707.18L1843.52 706.95L1800.64 688.57L1800.64 676.32L1856.11 701.74L1856.11 712.38Z" />
				</g>
				<g id="&lt;Group&gt;">
					<path id="&lt;Compound Path&gt;" class="shp12" d="M536.98 530.87C547.38 530.57 548.44 525.14 548.44 520.61C548.44 516.84 547.99 512.92 547.53 508.85C547.08 504.78 546.78 500.71 546.78 496.94C546.78 482.76 555.68 476.58 569.7 476.58L574.98 476.58L574.98 489.4L572.27 489.4C565.48 489.4 563.07 493.47 563.07 500.11C563.07 502.82 563.52 505.53 563.82 508.7C564.12 511.72 564.57 515.18 564.57 518.96C564.73 530.42 560.05 534.64 551.76 536.45L551.76 536.75C560.05 538.56 564.73 542.93 564.57 554.39C564.57 558.32 564.12 561.78 563.82 564.95C563.52 567.97 563.07 570.83 563.07 573.4C563.07 580.03 565.33 584.25 572.27 584.25L574.98 584.25L574.98 596.92L569.55 596.92C556.13 596.92 546.78 591.49 546.78 576.41C546.78 572.64 547.08 568.57 547.53 564.5C547.99 560.43 548.44 556.51 548.44 552.74C548.44 548.51 547.38 542.78 536.98 542.48L536.98 530.87Z" />
					<path id="&lt;Compound Path&gt;" class="shp12" d="M653.09 542.48C642.84 542.78 641.63 548.51 641.63 552.74C641.63 556.51 642.09 560.43 642.54 564.5C642.99 568.57 643.44 572.64 643.44 576.41C643.44 591.49 634.09 596.92 620.52 596.92L615.09 596.92L615.09 584.25L617.81 584.25C624.74 584.1 627 580.03 627 573.4C627 570.83 626.7 567.97 626.25 564.95C625.95 561.78 625.5 558.32 625.5 554.39C625.35 542.93 630.02 538.56 638.47 536.75L638.47 536.45C630.02 534.64 625.35 530.42 625.5 518.96C625.5 515.18 625.95 511.72 626.25 508.7C626.7 505.53 627 502.82 627 500.11C627 493.47 624.59 489.55 617.81 489.4L615.09 489.4L615.09 476.58L620.37 476.58C634.55 476.58 643.44 482.76 643.44 496.94C643.44 500.71 642.99 504.78 642.54 508.85C642.09 512.92 641.63 516.84 641.63 520.61C641.63 525.14 642.84 530.57 653.09 530.87L653.09 542.48Z" />
				</g>
				<path id="&lt;Path&gt;" class="shp9" d="M1110.38 720.84L731.92 720.84C728.28 720.84 725.08 718.43 724.07 714.93C722.55 709.7 726.48 704.48 731.92 704.48L1110.38 704.48C1114.02 704.48 1117.22 706.89 1118.23 710.39C1119.75 715.62 1115.82 720.84 1110.38 720.84Z" />
				<path id="&lt;Path&gt;" class="shp11" d="M1559.86 758.15L740.8 758.15C737.16 758.15 733.96 755.75 732.95 752.25C731.43 747.02 735.36 741.8 740.8 741.8L1559.86 741.8C1563.5 741.8 1566.71 744.2 1567.72 747.7L1567.72 747.7C1569.23 752.93 1565.31 758.15 1559.86 758.15Z" />
				<path id="&lt;Path&gt;" class="shp2" d="M1283.42 795.47L750.09 795.47C746.45 795.47 743.25 793.06 742.23 789.56C740.72 784.33 744.64 779.11 750.09 779.11L1283.42 779.11C1287.06 779.11 1290.26 781.52 1291.27 785.01C1292.79 790.25 1288.86 795.47 1283.42 795.47Z" />
				<path id="&lt;Path&gt;" class="shp9" d="M1192.68 993.21L814.23 993.21C810.59 993.21 807.38 990.8 806.37 987.3C804.86 982.07 808.78 976.85 814.23 976.85L1192.68 976.85C1196.32 976.85 1199.52 979.26 1200.54 982.75L1200.54 982.75C1202.05 987.98 1198.13 993.21 1192.68 993.21Z" />
				<path id="&lt;Path&gt;" class="shp5" d="M1365.72 1067.84L832.39 1067.84C828.75 1067.84 825.55 1065.43 824.54 1061.93C823.02 1056.7 826.95 1051.48 832.39 1051.48L1365.72 1051.48C1369.36 1051.48 1372.56 1053.89 1373.57 1057.38C1375.09 1062.61 1371.17 1067.84 1365.72 1067.84Z" />
				<path id="&lt;Path&gt;" class="shp11" d="M1079.09 850.11L765.09 850.11C761.45 850.11 758.25 847.71 757.23 844.21C755.72 838.98 759.64 833.76 765.09 833.76L1079.09 833.76C1082.73 833.76 1085.93 836.17 1086.95 839.66C1088.46 844.89 1084.54 850.11 1079.09 850.11Z" />
			</g>
		</g>
	</g>
</svg>