<svg xmlns="http://www.w3.org/2000/svg" viewBox="0 0 1800 1800" width="1800" height="1800">
	<defs>
		<linearGradient id="grd1" gradientUnits="userSpaceOnUse"  x1="582.153" y1="908.429" x2="601.768" y2="908.429">
			<stop offset="0" stop-color="#fff200"  />
			<stop offset="1" stop-color="#f7941e"  />
		</linearGradient>
		<linearGradient id="grd2" gradientUnits="userSpaceOnUse"  x1="440.943" y1="891.676" x2="730.787" y2="924.003">
			<stop offset="0" stop-color="#fff200"  />
			<stop offset="1" stop-color="#f7941e"  />
		</linearGradient>
		<radialGradient id="grd3" gradientUnits="userSpaceOnUse"  cx="899.713" cy="1541.902" r="338.203">
			<stop offset="0" stop-color="#231f20"  />
			<stop offset="0.216" stop-color="#534f50"  />
			<stop offset="1" stop-color="#ffffff"  />
		</radialGradient>
	</defs>
	<style>
		tspan { white-space:pre }
		.shp0 { fill: none;stroke: #ffffff;stroke-linecap:round;stroke-linejoin:round;stroke-width: 7.745 } 
		.shp1 { fill: #ffffff } 
		.shp2 { fill: none;stroke: #ffffff;stroke-linecap:round;stroke-linejoin:round;stroke-width: 5.33 } 
		.shp3 { fill: #324446 } 
		.shp4 { fill: #4e6566 } 
		.shp5 { fill: #0b2025 } 
		.shp6 { fill: #18aec8 } 
		.shp7 { opacity: 0.4;fill: #0b2025 } 
		.shp8 { fill: #fcc90d } 
		.shp9 { fill: #db8616 } 
		.shp10 { fill: url(#grd1) } 
		.shp11 { fill: url(#grd2) } 
		.shp12 { fill: #ffcd2e } 
		.shp13 { fill: #d8810e } 
		.shp14 { opacity: 0.2;mix-blend-mode: multiply;fill: url(#grd3) } 
		.shp15 { fill: #aa160b } 
		.shp16 { fill: #cccacb } 
		.shp17 { fill: #b5c0c9 } 
		.shp18 { opacity: 0.4;mix-blend-mode: multiply;fill: #90a3af } 
		.shp19 { fill: #f8ffff } 
		.shp20 { opacity: 0.502;fill: #b3c0c6 } 
		.shp21 { fill: #5ac7d3 } 
		.shp22 { fill: #90a3af } 
		.shp23 { fill: #d11f11 } 
		.shp24 { opacity: 0.502;mix-blend-mode: multiply;fill: #b71d0d } 
		.shp25 { fill: #e08b0e } 
		.shp26 { fill: #ffd140 } 
		.shp27 { fill: #e58e0e } 
		.shp28 { fill: #bf2105 } 
		.shp29 { fill: #b71d0d } 
		.shp30 { fill: #d31c04 } 
		.shp31 { fill: #ff3912 } 
		.shp32 { fill: #fabb12 } 
		.shp33 { fill: #fccc0c } 
		.shp34 { fill: #5cc8d3 } 
	</style>
	<g id="Layer 1">
		<g id="&lt;Group&gt;">
		</g>
		<g id="&lt;Group&gt;">
			<path id="&lt;Path&gt;" class="shp0" d="" />
			<path id="&lt;Path&gt;" class="shp0" d="" />
			<path id="&lt;Path&gt;" class="shp0" d="" />
			<path id="&lt;Path&gt;" class="shp0" d="M1309.8 1235.52C1309.8 1253.03 1295.61 1267.23 1278.09 1267.23C1295.61 1267.23 1309.8 1281.43 1309.8 1298.94C1309.8 1281.43 1324 1267.23 1341.51 1267.23C1324 1267.23 1309.8 1253.03 1309.8 1235.52Z" />
			<path id="&lt;Path&gt;" class="shp0" d="" />
		</g>
		<path id="&lt;Path&gt;" class="shp1" d="M1021.97 468.58L1074.67 375.37L1135.71 407.33L1189.02 305.49L1263.4 342.44L1292.19 281.72L1269.92 280.8L1316 239.66L1313.31 301.38L1298.51 284.71L1266.67 351.86L1192.04 314.79L1138.66 416.76L1077.42 384.7L1028.06 472.02L1021.97 468.58Z" />
		<g id="&lt;Group&gt;">
			<g id="&lt;Group&gt;">
				<path id="&lt;Path&gt;" class="shp0" d="M1259.45 1567.06C1261.84 1552.64 1264.46 1536.79 1266.24 1526.1" />
			</g>
			<g id="&lt;Group&gt;">
				<path id="&lt;Path&gt;" class="shp0" d="M1286.53 1528.82C1284.79 1539.35 1282.16 1555.24 1279.75 1569.78" />
			</g>
			<g id="&lt;Group&gt;">
				<path id="&lt;Path&gt;" class="shp0" d="M1235.09 1587.27L1259.31 1567.87L1279.51 1571.22L1295.02 1597.19L1235.09 1587.27Z" />
			</g>
			<g id="&lt;Group&gt;">
				<g id="&lt;Group&gt;">
					<g id="&lt;Group&gt;">
						<path id="&lt;Compound Path&gt;" class="shp0" d="M1358.64 1414.09C1371.8 1416.26 1389.62 1419.22 1412.09 1422.94L1410.11 1430.47C1409.87 1431.41 1403.92 1453.69 1390.49 1475.08C1372.29 1504.08 1348.99 1517.52 1323.02 1514.04" />
						<path id="&lt;Compound Path&gt;" class="shp0" d="M1336.85 1499.93C1369.81 1495.11 1387.94 1451.98 1394.03 1434.33C1376.41 1431.41 1363.97 1429.35 1356.7 1428.15" />
					</g>
				</g>
			</g>
			<g id="&lt;Group&gt;">
				<g id="&lt;Group&gt;">
					<g id="&lt;Group&gt;">
						<path id="&lt;Compound Path&gt;" class="shp0" d="M1233.38 1499.03C1209.23 1493.04 1192.54 1473.1 1184.95 1441.04C1179.13 1416.46 1180.69 1393.45 1180.76 1392.48L1181.32 1384.71C1203.05 1388.31 1220.53 1391.21 1233.76 1393.4" />
						<path id="&lt;Compound Path&gt;" class="shp0" d="M1232.2 1407.53C1224.99 1406.33 1212.5 1404.26 1194.74 1401.32C1194.82 1420.33 1198.2 1468.37 1229.36 1482.65" />
					</g>
				</g>
			</g>
			<g id="&lt;Group&gt;">
				<path id="&lt;Path&gt;" class="shp0" d="M1238.6 1376.29C1234.9 1397.91 1226.35 1450.72 1228.15 1468.02C1231.84 1503.55 1250.69 1521.78 1274.19 1525.68L1276.61 1526.08L1279.03 1526.48C1302.53 1530.37 1326.26 1519.18 1341.21 1486.74C1348.68 1470.51 1358.23 1415.92 1361.56 1394.87" />
			</g>
			<g id="&lt;Group&gt;">
				<path id="&lt;Path&gt;" class="shp0" d="M1296.19 1597.39L1235.09 1587.27C1226.22 1585.8 1217.85 1591.8 1216.38 1600.66L1309.58 1616.1C1311.05 1607.23 1305.05 1598.86 1296.19 1597.39Z" />
			</g>
			<g id="&lt;Group&gt;">
				<path id="&lt;Path&gt;" class="shp0" d="M1308.26 1673.06L1199.27 1655.01L1208.49 1599.35L1317.48 1617.4L1308.26 1673.06Z" />
			</g>
			<g id="&lt;Group&gt;">
				<path id="&lt;Path&gt;" class="shp0" d="M1314.7 1691.15L1187.34 1670.06L1190.08 1653.49L1317.45 1674.58L1314.7 1691.15Z" />
			</g>
			<g id="&lt;Group&gt;">
				<path id="&lt;Path&gt;" class="shp0" d="M1373.85 1386.69C1373 1391.84 1368.13 1395.32 1362.98 1394.47L1240.27 1374.15C1235.12 1373.29 1231.64 1368.43 1232.49 1363.28C1233.34 1358.13 1238.21 1354.65 1243.36 1355.5L1366.07 1375.83C1371.22 1376.68 1374.7 1381.54 1373.85 1386.69Z" />
			</g>
		</g>
		<g id="&lt;Group&gt;">
			<path id="&lt;Compound Path&gt;" fill-rule="evenodd" class="shp0" d="M383.34 464.44L53.47 275.48L161.23 87.35L383.34 464.44ZM275.22 357.61L161.7 164.89L106.63 261.04L275.22 357.61Z" />
			<path id="&lt;Path&gt;" class="shp0" d="M93.25 274.94L83.68 290.98" />
			<path id="&lt;Path&gt;" class="shp0" d="M121.53 290.46L111.96 306.49" />
			<path id="&lt;Path&gt;" class="shp0" d="M148.72 305.95L139.15 321.99" />
			<path id="&lt;Path&gt;" class="shp0" d="M177 321.47L167.43 337.5" />
			<path id="&lt;Path&gt;" class="shp0" d="M205.7 339.77L196.13 355.81" />
			<path id="&lt;Path&gt;" class="shp0" d="M233.98 355.29L224.41 371.32" />
			<path id="&lt;Path&gt;" class="shp0" d="M261.17 370.78L251.6 386.82" />
			<path id="&lt;Path&gt;" class="shp0" d="M289.45 386.3L279.88 402.33" />
			<path id="&lt;Path&gt;" class="shp0" d="M319.46 403.88L309.89 419.92" />
		</g>
		<g id="&lt;Group&gt;">
			<g id="&lt;Group&gt;">
				<path id="&lt;Path&gt;" class="shp1" d="M398.48 1101.15L396.4 1191.08C389.34 1189.51 382.81 1190.94 376.82 1195.36C364.02 1204.8 367.88 1217.52 376.19 1220.75C388.32 1225.47 404.07 1216.89 404.41 1202.09C404.75 1187.39 405.42 1157.98 406.44 1113.86L466.75 1104.15L466.17 1178.46C459.95 1176.79 453.47 1177.88 446.74 1181.71C430.34 1191.04 437.49 1211.96 452.63 1210.04C460.17 1209.07 469.5 1202.74 471.22 1189.67C473.45 1172.78 474.56 1138.73 474.54 1087.53L398.48 1101.15Z" />
			</g>
		</g>
		<g id="&lt;Group&gt;">
			<g id="&lt;Group&gt;">
				<g id="&lt;Group&gt;">
					<path id="&lt;Path&gt;" class="shp0" d="M418.5 1646.48C418.35 1639.08 421.09 1631.45 428.21 1628.11L429.69 1627.42C437.7 1623.67 446.99 1628.35 452.5 1634.75" />
					<path id="&lt;Path&gt;" class="shp0" d="M118.8 1499.76C119.04 1495.26 119.41 1488.17 119.93 1478.48C135.66 1473.59 147.8 1467.95 156.33 1461.58C196.08 1431.88 234.42 1396.38 285.17 1390.08C306.41 1387.45 318.07 1397.04 323.34 1403.42" />
					<path id="&lt;Path&gt;" class="shp0" d="M530.64 1309.53C526.85 1306.7 521.44 1302.65 514.39 1297.37C501.35 1310.07 489.65 1317.66 479.29 1320.13C431.03 1331.64 376.63 1329.79 339.29 1364.74C324.44 1378.64 323.62 1392.97 324.88 1401.34" />
					<path id="&lt;Path&gt;" class="shp0" d="M548.35 1314.67L538.72 1306.79L360.08 1405.6C351.07 1396.58 329.91 1401.46 324.84 1403.53L323.37 1404.22C316.9 1407.88 304.45 1418.41 305.61 1431.11L111.8 1503.21L111.46 1515.64" />
					<path id="&lt;Path&gt;" class="shp0" d="M319.36 1439.08C319.21 1431.68 323.34 1424.52 330.47 1421.18L331.94 1420.49C339.95 1416.74 349.24 1418.99 354.76 1425.38" />
				</g>
				<path id="&lt;Path&gt;" class="shp0" d="M454.57 1638.37L633.39 1534.79L548.35 1314.67L355.37 1424.88L454.57 1638.37Z" />
				<path id="&lt;Path&gt;" class="shp0" d="M226.1 1721.91L421.54 1653.84L321.08 1440.94L111.46 1515.64L226.1 1721.91Z" />
			</g>
			<g id="&lt;Group&gt;">
				<path id="&lt;Path&gt;" class="shp0" d="M406.13 1462.52L420.26 1492.69L558.76 1415.03L544.19 1383.92L406.13 1462.52Z" />
				<path id="&lt;Path&gt;" class="shp0" d="M431.16 1512.96L569.66 1435.29" />
				<path id="&lt;Path&gt;" class="shp0" d="M484.11 1528.2L547.42 1491.64" />
			</g>
		</g>
		<path id="&lt;Compound Path&gt;" fill-rule="evenodd" class="shp1" d="M815.51 165.6C814.71 168.16 811.98 169.58 809.43 168.78L805.17 167.44L753.87 330.72C750.09 342.75 737.28 349.43 725.26 345.65C713.23 341.87 706.55 329.06 710.33 317.04L761.63 153.76L757.38 152.42C754.82 151.62 753.4 148.9 754.2 146.34C755.01 143.78 757.74 142.36 760.29 143.16L812.34 159.52C814.89 160.32 816.32 163.05 815.51 165.6ZM796.96 163.7L770.51 155.39L741.42 247.97L718.87 319.73C716.58 327.02 720.65 334.81 727.94 337.11C735.24 339.4 743.03 335.33 745.33 328.04L767.87 256.28L796.96 163.7Z" />
		<g id="&lt;Group&gt;">
			<path id="&lt;Path&gt;" class="shp0" d="M220.01 905.03L149.34 871.12L151.38 866.86C153.17 863.13 151.6 858.64 147.88 856.86C144.15 855.07 139.67 856.65 137.88 860.38L117.41 903.04C115.63 906.76 117.2 911.23 120.93 913.02C124.65 914.8 129.13 913.24 130.91 909.51L132.96 905.24L203.64 939.16C199.15 967.35 213.33 996.29 240.39 1009.28C273.37 1025.1 312.94 1011.19 328.77 978.21C344.59 945.23 330.68 905.66 297.7 889.83C270.65 876.85 239.19 883.9 220.01 905.03Z" />
			<path id="&lt;Path&gt;" class="shp0" d="M288.11 901.44C277.54 891.21 258.88 895.77 253.37 907.24C251.33 911.49 250.62 916.03 251.03 920.4C246.21 920.84 241.73 923.72 239.48 928.4C237.78 931.95 237.68 935.86 238.9 939.3C235.09 941.18 231.86 944.29 229.88 948.41C225.66 957.22 228.57 967.58 236.29 973.03C228.6 980.58 236.13 993.4 243.61 996.99C239.28 1004.13 238.2 1008.23 240.39 1009.28C273.37 1025.1 312.94 1011.19 328.77 978.21C344.59 945.23 330.68 905.66 297.7 889.83C295.52 888.78 292.32 892.65 288.11 901.44Z" />
		</g>
		<g id="&lt;Group&gt;">
			<g id="&lt;Group&gt;">
				<path id="&lt;Path&gt;" class="shp0" d="M971.31 164.31C975.21 180.67 983.65 196.14 996.61 208.72C1032.93 243.99 1090.99 243.13 1126.26 206.8C1127.53 205.49 1128.76 204.15 1129.94 202.78" />
				<path id="&lt;Path&gt;" class="shp0" d="M1146.86 173.7C1158.51 140.95 1150.91 102.96 1124.33 77.16C1088 41.89 1029.97 42.75 994.7 79.08C979.58 94.65 971.1 114.21 969.2 134.26" />
				<path id="&lt;Path&gt;" class="shp0" d="M985.12 90.74C979.81 98.37 975.81 106.62 973.1 115.19C956.8 114.63 946.64 116.18 945.8 120.1C944.94 124.04 953.71 129.74 969.06 136.08C971.52 137.09 974.14 138.13 976.93 139.17C997.56 146.9 1026.79 155.26 1059.58 162.39C1084.65 167.84 1108.12 171.76 1127.6 173.99C1134.29 174.76 1140.47 175.31 1146.12 175.67C1166.62 176.98 1179.7 175.59 1180.66 171.14C1181.63 166.72 1170.5 160.1 1151.59 152.85C1152.57 143.83 1152.21 134.7 1150.52 125.78C1205.63 144.95 1241.36 167.39 1237.85 183.57C1234.29 199.91 1191.57 205.43 1132.48 199.7C1127.72 199.24 1122.87 198.72 1117.91 198.11C1097.94 195.66 1076.46 192.04 1054.2 187.21C1025.3 180.92 998.43 173.32 975.07 165.15C973.77 164.69 972.49 164.24 971.21 163.78C918.8 144.98 885.2 123.37 888.62 107.67C891.99 92.14 930.65 86.38 985.12 90.74Z" />
			</g>
		</g>
		<g id="&lt;Group&gt;">
			<path id="&lt;Path&gt;" class="shp0" d="M1467.13 1230.26C1463 1220.7 1446.06 1218.9 1436.46 1215.24C1430.02 1212.77 1419.81 1209.93 1412.24 1205.13C1405.46 1252 1423.17 1296.75 1456.46 1326.93C1457.72 1315.33 1454.54 1300.8 1454.47 1291.75C1454.24 1270.92 1476.33 1251.49 1467.13 1230.26Z" />
			<path id="&lt;Path&gt;" class="shp0" d="M1677.1 1245.12C1674.69 1246.56 1675.95 1248.29 1674.88 1250.32C1672.54 1254.8 1671.58 1260.28 1669.19 1264.61C1662.62 1276.6 1656.16 1272.56 1642.89 1275.99C1628.85 1279.62 1629.28 1288.36 1634.43 1299.64C1639.18 1310 1641.41 1319.98 1642.48 1331.39C1642.61 1332.87 1642.99 1335.09 1643.43 1337.56C1673.53 1316.56 1695.57 1284.8 1702.71 1247C1693.75 1244.97 1681.49 1242.46 1677.1 1245.12Z" />
			<g id="&lt;Group&gt;">
				<g id="&lt;Group&gt;">
					<path id="&lt;Path&gt;" class="shp0" d="M1643.87 1107.2C1629.37 1110.4 1615.08 1112.21 1611.94 1112.43C1592.06 1113.94 1551.05 1106.07 1549.96 1134.65C1549.5 1146.27 1556.17 1158 1554.13 1169.37C1552.97 1175.78 1551.14 1176.44 1544.92 1178.23C1539.01 1179.92 1532.91 1180.35 1526.8 1180.75C1524.49 1180.9 1517.84 1180.61 1512.77 1181.24C1510.32 1181.55 1508.2 1182.07 1507.22 1183.03C1503.13 1186.93 1506.16 1195.62 1508.43 1199.52C1514.72 1210.38 1528.64 1215.03 1540.73 1219.12C1542.52 1219.72 1544.24 1220.3 1545.91 1220.9C1563.37 1227.06 1573.91 1231.34 1570.65 1250.52C1570.24 1252.97 1569.91 1255.43 1569.28 1257.75C1568.58 1260.32 1567.44 1262.69 1565.21 1264.65C1560.41 1268.79 1552.55 1267.29 1547.75 1270.84C1535 1280.3 1546.76 1300.9 1557.61 1306.85C1564.85 1310.79 1573.29 1311.18 1578.33 1318.14C1583.16 1324.84 1582.2 1332.76 1584.12 1340.15C1585.98 1347.46 1590.62 1354.45 1596.91 1359.27C1609.66 1355.73 1621.82 1350.65 1633.07 1344.13C1636.63 1342.08 1640.06 1339.92 1643.43 1337.56C1642.99 1335.09 1642.61 1332.87 1642.48 1331.39C1641.41 1319.98 1639.18 1310 1634.43 1299.64C1629.28 1288.36 1628.85 1279.62 1642.89 1275.99C1656.16 1272.56 1662.62 1276.6 1669.19 1264.61C1671.58 1260.28 1672.54 1254.8 1674.88 1250.32C1675.95 1248.29 1674.69 1246.56 1677.1 1245.12C1681.49 1242.46 1693.75 1244.97 1702.71 1247C1702.79 1246.53 1702.94 1246.1 1703.03 1245.66C1712.93 1190.31 1688.1 1137.43 1643.87 1107.2Z" />
					<path id="&lt;Path&gt;" class="shp0" d="M1519.81 1113.58C1521.11 1108.12 1518.82 1100.05 1516.31 1095.23C1515.14 1093.01 1513.81 1090.89 1512.42 1088.8C1494.64 1094.58 1478.26 1103.65 1464 1115.22C1453.52 1123.7 1444.17 1133.49 1436.4 1144.51C1444.55 1141.77 1453.53 1141.14 1461.21 1136.49C1465.43 1133.97 1470.42 1132.16 1475.47 1130.74C1478.8 1129.81 1482.18 1128.98 1485.34 1128.37C1496.72 1126.12 1516.39 1127.76 1519.81 1113.58Z" />
				</g>
				<path id="&lt;Path&gt;" class="shp0" d="M1582.97 1083.12C1558.54 1079.32 1534.49 1081.64 1512.42 1088.8C1513.81 1090.89 1515.14 1093.01 1516.31 1095.23C1518.82 1100.05 1521.11 1108.12 1519.81 1113.58C1516.39 1127.76 1496.72 1126.12 1485.34 1128.37C1482.18 1128.98 1478.8 1129.81 1475.47 1130.74C1470.42 1132.16 1465.43 1133.97 1461.21 1136.49C1453.53 1141.14 1444.55 1141.77 1436.4 1144.51C1424.84 1160.93 1416.52 1179.81 1412.81 1200.55C1412.54 1202.1 1412.46 1203.63 1412.24 1205.13C1419.81 1209.93 1430.02 1212.77 1436.46 1215.24C1446.06 1218.9 1463 1220.7 1467.13 1230.26C1476.33 1251.49 1454.24 1270.92 1454.47 1291.75C1454.54 1300.8 1457.72 1315.33 1456.46 1326.93C1476.87 1345.43 1503.04 1358.41 1532.88 1363.05C1554.96 1366.49 1576.65 1364.85 1596.91 1359.27C1590.62 1354.45 1585.98 1347.46 1584.12 1340.15C1582.2 1332.76 1583.16 1324.84 1578.33 1318.14C1573.29 1311.18 1564.85 1310.79 1557.61 1306.85C1546.76 1300.9 1535 1280.3 1547.75 1270.84C1552.55 1267.29 1560.41 1268.79 1565.21 1264.65C1567.44 1262.69 1568.58 1260.32 1569.28 1257.75C1569.91 1255.43 1570.24 1252.97 1570.65 1250.52C1573.91 1231.34 1563.37 1227.06 1545.91 1220.9C1544.24 1220.3 1542.52 1219.72 1540.73 1219.12C1528.64 1215.03 1514.72 1210.38 1508.43 1199.52C1506.16 1195.62 1503.13 1186.93 1507.22 1183.03C1508.2 1182.07 1510.32 1181.55 1512.77 1181.24C1517.84 1180.61 1524.49 1180.9 1526.8 1180.75C1532.91 1180.35 1539.01 1179.92 1544.92 1178.23C1551.14 1176.44 1552.97 1175.78 1554.13 1169.37C1556.17 1158 1549.5 1146.27 1549.96 1134.65C1551.05 1106.07 1592.06 1113.94 1611.94 1112.43C1615.08 1112.21 1629.37 1110.4 1643.87 1107.2C1626.29 1095.19 1605.74 1086.66 1582.97 1083.12Z" />
			</g>
		</g>
		<g id="&lt;Group&gt;">
			<path id="&lt;Compound Path&gt;" fill-rule="evenodd" class="shp0" d="M586.64 274.24C615.07 321.28 603.4 381.24 561.52 414.62L549.49 421.89L537.48 429.14C488.47 450.7 429.96 433.16 401.53 386.13C370.63 335.01 387 268.54 438.13 237.65C489.24 206.74 555.73 223.12 586.64 274.24ZM567.57 285.78C543.05 245.19 490.24 232.18 449.65 256.71C409.05 281.24 396.06 334.03 420.59 374.62C445.12 415.2 497.92 428.22 538.51 403.7C579.09 379.16 592.11 326.37 567.57 285.78Z" />
			<path id="&lt;Path&gt;" class="shp0" d="M589.2 425.74L584.77 418.37C580.41 411.18 571.05 408.85 563.83 413.21L561.52 414.62L549.49 421.89L537.48 429.14L535.16 430.54C527.96 434.89 525.64 444.29 529.99 451.49L534.46 458.87C538.8 466.05 548.18 468.37 555.4 464.01C548.18 468.37 545.86 477.74 550.22 484.95L607.84 580.27C612.18 587.47 621.56 589.76 628.79 585.41L643.11 576.76L657.45 568.07C664.67 563.72 666.96 554.36 662.59 547.16L604.97 451.83C600.62 444.64 591.28 442.31 584.06 446.68C591.28 442.31 593.58 432.95 589.2 425.74Z" />
		</g>
		<g id="&lt;Group&gt;">
			<path id="&lt;Path&gt;" class="shp0" d="M1333.7 381.23C1333.14 406.75 1331.12 497.96 1330.09 544.19" />
			<path id="&lt;Path&gt;" class="shp0" d="M1345.6 549.94C1346.53 508.24 1348.51 418.7 1349.22 386.57" />
			<path id="&lt;Path&gt;" class="shp0" d="M1529.72 273.78C1494.74 288.59 1401.04 328.26 1371 340.98" />
			<path id="&lt;Path&gt;" class="shp0" d="M1376.25 355.73C1405.43 343.38 1501.03 302.9 1536.11 288.05" />
			<path id="&lt;Compound Path&gt;" fill-rule="evenodd" class="shp0" d="M1359.21 334.02C1372.94 339.24 1379.83 354.6 1374.61 368.33C1369.38 382.06 1354.02 388.95 1340.29 383.73C1326.57 378.5 1319.67 363.14 1324.89 349.41C1330.12 335.68 1345.48 328.79 1359.21 334.02ZM1345.62 369.73C1351.62 372.02 1358.33 369 1360.61 363C1362.9 357 1359.89 350.29 1353.88 348C1347.88 345.72 1341.17 348.73 1338.88 354.74C1336.6 360.73 1339.62 367.45 1345.62 369.73Z" />
			<path id="&lt;Path&gt;" class="shp0" d="M1275.53 560.54L1280.43 547.67C1284.51 536.95 1296.5 531.58 1307.21 535.65L1373.67 560.94C1384.38 565.02 1389.76 577 1385.69 587.72L1380.79 600.59L1275.53 560.54Z" />
			<path id="&lt;Path&gt;" class="shp0" d="M1556.28 295.69C1552.67 287.4 1546.27 272.75 1537.06 251.72L1523.78 257.5C1533.07 278.75 1539.51 293.49 1543.09 301.71" />
			<path id="&lt;Path&gt;" class="shp0" d="M1542.53 391.8L1622.63 359.87L1573.34 292.2L1530.81 310.77L1542.53 391.8Z" />
		</g>
		<g id="&lt;Group&gt;">
			<path id="&lt;Path&gt;" class="shp0" d="M1726.31 938.77L1715.71 916.48L1684.26 921.17L1702.8 960.19L1726.31 938.77Z" />
			<path id="&lt;Path&gt;" class="shp0" d="M1751.08 914.37L1715.87 916.81L1726.15 938.42L1751.08 914.37Z" />
			<path id="&lt;Path&gt;" class="shp0" d="M1568.43 992.4L1568.43 992.4L1574.45 1005.06L1580.71 1018.24L1702.81 960.19L1696.54 947.02L1690.52 934.35L1690.53 934.35L1684.26 921.17L1562.17 979.23L1568.43 992.4Z" />
			<path id="&lt;Path&gt;" class="shp0" d="M1690.82 942.85L1574.15 998.66" />
		</g>
		<g id="&lt;Group&gt;">
			<path id="&lt;Path&gt;" class="shp0" d="M270.64 512.85C278.07 510.31 284.11 508.25 288.76 506.66C298.47 503.35 309.03 508.53 312.35 518.24L363.89 669.14C367.21 678.84 362.02 689.41 352.32 692.72L179.71 751.68C170 754.99 159.44 749.81 156.12 740.1L104.58 589.2C101.27 579.49 106.45 568.93 116.16 565.62C120.57 564.11 126.31 562.15 133.4 559.73" />
			<path id="&lt;Path&gt;" class="shp0" d="M160.49 550.48C186.56 541.57 219.4 530.36 245.32 521.5" />
			<g id="&lt;Group&gt;">
				<path id="&lt;Path&gt;" class="shp0" d="M162.22 560.27C164.57 567.12 160.91 574.57 154.06 576.91C147.21 579.25 139.76 575.59 137.42 568.74L130 547.04C127.66 540.19 131.32 532.73 138.17 530.4C145.02 528.05 152.47 531.71 154.81 538.56L162.22 560.27Z" />
				<path id="&lt;Path&gt;" class="shp0" d="M273.86 522.14C276.2 528.99 272.54 536.44 265.7 538.78C258.84 541.12 251.39 537.47 249.05 530.61L241.64 508.91C239.3 502.06 242.96 494.61 249.81 492.26C256.66 489.93 264.11 493.58 266.45 500.43L273.86 522.14Z" />
			</g>
			<g id="&lt;Group&gt;">
				<g id="&lt;Group&gt;">
					<g id="&lt;Group&gt;">
						<path id="&lt;Compound Path&gt;" class="shp1" d="M186.8 612.9C188.83 611.62 191.14 610.69 192.96 610.07C194.91 609.4 197.04 608.82 199.56 608.54L221.58 673.01C222.65 676.14 223.41 678.79 224.43 681.78C226.39 681.11 230.38 679.6 232.07 679.03L241.06 675.96C242.07 677.65 242.87 679.56 243.54 681.51C244.16 683.33 244.7 685.33 244.93 687.29L195.83 704.06C194.77 702.24 194.02 700.46 193.4 698.64C192.73 696.68 192.19 694.68 191.96 692.73L203.94 688.64C205.63 688.06 209.58 686.85 211.41 686.23C210.39 683.23 209.37 680.68 208.3 677.55L198.16 647.86C197.04 644.6 195.03 637.43 193.42 631.87C190.56 639.68 185.01 647.25 179.47 652.34C176.07 651.76 172.79 649.39 170.99 646.23C180.95 634.1 186 622.05 186.8 612.9Z" />
					</g>
				</g>
				<g id="&lt;Group&gt;">
					<g id="&lt;Group&gt;">
						<path id="&lt;Compound Path&gt;" class="shp1" d="M283.79 586.03C285.12 589.94 283.75 592.73 279.84 594.06L257.31 601.76L252.36 603.45L254.59 609.96L257.18 619.26L257.95 622.78C260.97 620.14 264.44 617.94 268.61 616.52C284.49 611.09 298.56 617.78 304.3 634.58C311.51 655.68 299.82 670.43 284.97 675.5C274.68 679.02 264.89 678.44 257.64 675.53C257.23 672.62 258.23 667.47 260.3 664.59C266.75 666.45 273.25 667.15 280.28 664.74C289 661.76 294.95 653.19 290.5 640.17C286 627.01 276.21 625.99 268.65 628.58C263.57 630.31 259.03 634.04 255.85 639.2C253.24 639.66 249.62 638.42 247.78 636.87L236.21 597.04L236.81 595.82L280.96 580.74C282.28 582.47 283.3 584.6 283.79 586.03Z" />
					</g>
				</g>
			</g>
		</g>
		<g id="&lt;Group&gt;">
			<path id="&lt;Path&gt;" class="shp2" d="M1577.16 1499.93C1580.38 1507.71 1576.68 1516.62 1568.91 1519.84L1534.97 1533.87C1527.19 1537.08 1518.28 1533.38 1515.06 1525.61L1501.03 1491.67C1497.82 1483.89 1501.51 1474.98 1509.29 1471.76L1543.23 1457.73C1551.01 1454.52 1559.92 1458.22 1563.13 1465.99L1577.16 1499.93Z" />
			<g id="&lt;Group&gt;">
				<g id="&lt;Group&gt;">
					<path id="&lt;Compound Path&gt;" class="shp1" d="M1528.62 1480.71C1529.68 1480 1530.81 1479.44 1532.11 1478.9C1533.42 1478.36 1534.69 1477.93 1535.86 1477.72L1539.77 1487.19C1540.25 1488.33 1540.74 1489.75 1541.26 1490.99C1542.41 1490.51 1543.76 1489.86 1544.99 1489.35L1553.77 1485.72C1554.48 1486.78 1554.94 1487.67 1555.48 1488.98C1556.02 1490.29 1556.42 1491.48 1556.6 1492.57L1547.83 1496.2C1546.6 1496.71 1545.18 1497.21 1544.03 1497.68C1544.53 1498.92 1545.18 1500.27 1545.63 1501.35L1549.57 1510.89C1548.59 1511.57 1547.39 1512.16 1546.16 1512.66C1544.78 1513.24 1543.59 1513.64 1542.34 1513.88L1538.39 1504.34C1537.95 1503.26 1537.45 1501.84 1536.94 1500.61C1535.71 1501.12 1534.36 1501.77 1533.2 1502.25L1524.43 1505.88C1523.78 1504.97 1523.23 1503.85 1522.69 1502.54C1522.15 1501.23 1521.81 1500.2 1521.59 1499.03L1530.37 1495.4C1531.52 1494.92 1532.94 1494.42 1534.17 1493.92C1533.66 1492.69 1533.01 1491.33 1532.54 1490.17L1528.62 1480.71Z" />
				</g>
			</g>
			<path id="&lt;Path&gt;" class="shp2" d="M1654.67 1467.89C1657.89 1475.66 1654.19 1484.58 1646.41 1487.79L1612.47 1501.83C1604.7 1505.04 1595.79 1501.34 1592.57 1493.56L1578.54 1459.62C1575.32 1451.85 1579.02 1442.94 1586.8 1439.72L1620.73 1425.69C1628.51 1422.48 1637.42 1426.17 1640.64 1433.95L1654.67 1467.89Z" />
			<g id="&lt;Group&gt;">
				<g id="&lt;Group&gt;">
					<path id="&lt;Compound Path&gt;" class="shp1" d="M1608.47 1471.13C1607.72 1470.18 1607.1 1468.9 1606.69 1467.9C1606.24 1466.82 1605.78 1465.48 1605.64 1464.28L1624.73 1456.38C1625.49 1457.34 1626.11 1458.61 1626.55 1459.69C1626.96 1460.69 1627.43 1462.03 1627.57 1463.24L1608.47 1471.13Z" />
				</g>
			</g>
			<path id="&lt;Path&gt;" class="shp2" d="M1607.9 1574.28C1611.12 1582.06 1607.42 1590.97 1599.64 1594.19L1565.7 1608.22C1557.93 1611.43 1549.01 1607.73 1545.8 1599.96L1531.77 1566.02C1528.55 1558.24 1532.25 1549.33 1540.03 1546.11L1573.97 1532.08C1581.74 1528.87 1590.66 1532.57 1593.88 1540.34L1607.9 1574.28Z" />
			<path id="&lt;Path&gt;" class="shp2" d="M1685.41 1542.24C1688.63 1550.01 1684.93 1558.93 1677.15 1562.14L1643.21 1576.17C1635.44 1579.39 1626.52 1575.69 1623.31 1567.91L1609.28 1533.97C1606.06 1526.2 1609.76 1517.28 1617.54 1514.07L1651.47 1500.04C1659.25 1496.82 1668.16 1500.52 1671.38 1508.3L1685.41 1542.24Z" />
			<g id="&lt;Group&gt;">
				<g id="&lt;Group&gt;">
					<g id="&lt;Group&gt;">
						<path id="&lt;Compound Path&gt;" class="shp1" d="M1643.57 1557.11C1642.19 1557.05 1640.95 1556.66 1639.79 1556.24C1638.7 1555.78 1637.52 1555.1 1636.58 1554.14L1641.08 1543.45C1641.45 1542.39 1641.98 1541.27 1642.43 1540.18L1639.14 1538.75L1628.4 1534.36C1628.41 1533.08 1628.62 1531.83 1629.16 1530.53C1629.66 1529.33 1630.37 1528.23 1631.26 1527.32L1642.03 1531.79C1643.04 1532.27 1644.19 1532.88 1645.28 1533.33C1645.81 1532.21 1646.27 1530.93 1646.68 1529.95L1651.04 1519.14C1652.31 1519.16 1653.59 1519.43 1654.79 1519.93C1655.99 1520.42 1657.1 1521.14 1658.11 1522.07L1653.61 1532.77C1653.23 1533.82 1652.59 1535.08 1652.13 1536.17C1653.19 1536.55 1654.54 1536.98 1655.52 1537.38L1666.29 1541.86C1666.23 1543.23 1665.99 1544.41 1665.5 1545.61C1665 1546.8 1664.24 1548.02 1663.32 1548.85L1652.63 1544.35L1649.29 1543.02L1648.01 1546.26L1643.57 1557.11Z" />
					</g>
				</g>
			</g>
			<g id="&lt;Group&gt;">
				<g id="&lt;Group&gt;">
					<g id="&lt;Group&gt;">
						<path id="&lt;Compound Path&gt;" class="shp1" d="M1555.12 1580.11C1554.47 1579.21 1553.85 1577.93 1553.41 1576.85C1552.97 1575.77 1552.53 1574.51 1552.29 1573.26L1584.46 1559.96C1585.17 1561.02 1585.76 1562.22 1586.2 1563.3C1586.65 1564.37 1587.11 1565.71 1587.29 1566.81L1555.12 1580.11ZM1558.8 1554.79C1559.5 1553.87 1560.96 1552.82 1562.42 1552.21C1563.81 1551.64 1565.74 1551.3 1566.81 1551.48C1567.54 1552.17 1568.42 1553.43 1568.87 1554.51C1569.31 1555.59 1569.58 1557.1 1569.51 1558.03C1568.96 1558.88 1567.28 1560.03 1565.89 1560.6C1564.43 1561.21 1562.61 1561.6 1561.5 1561.33C1560.8 1560.73 1559.92 1559.47 1559.48 1558.39C1559.03 1557.31 1558.77 1555.8 1558.8 1554.79ZM1570.16 1582.27C1570.87 1581.35 1572.32 1580.3 1573.78 1579.7C1575.17 1579.12 1577.1 1578.78 1578.17 1578.96C1578.87 1579.58 1579.78 1580.91 1580.2 1581.91C1580.67 1583.06 1580.91 1584.5 1580.87 1585.51C1580.33 1586.36 1578.64 1587.51 1577.25 1588.09C1575.79 1588.69 1573.94 1589 1572.87 1588.82C1572.13 1588.13 1571.29 1586.95 1570.81 1585.8C1570.36 1584.71 1570.1 1583.21 1570.16 1582.27Z" />
					</g>
				</g>
			</g>
		</g>
		<g id="&lt;Group&gt;">
			<path id="&lt;Path&gt;" class="shp0" d="M574.32 806.85C589.17 861.05 557.27 917.02 503.07 931.88C448.88 946.73 392.9 914.83 378.05 860.63C363.2 806.44 395.09 750.46 449.29 735.61C503.49 720.76 559.46 752.65 574.32 806.85Z" />
			<g id="&lt;Group&gt;">
				<path id="&lt;Path&gt;" class="shp1" d="M413.66 850.88C414.52 854.03 412.67 857.28 409.51 858.14C406.36 859.01 403.11 857.15 402.24 854C401.38 850.85 403.24 847.6 406.39 846.73C409.54 845.87 412.79 847.73 413.66 850.88Z" />
				<path id="&lt;Path&gt;" class="shp1" d="M550.12 813.48C550.98 816.63 549.12 819.89 545.97 820.75C542.82 821.61 539.57 819.76 538.7 816.61C537.84 813.45 539.69 810.2 542.85 809.34C546 808.47 549.25 810.33 550.12 813.48Z" />
			</g>
			<g id="&lt;Group&gt;">
				<path id="&lt;Path&gt;" class="shp1" d="M459.04 771.22C455.89 772.08 452.64 770.23 451.78 767.08C450.91 763.92 452.77 760.67 455.92 759.8C459.07 758.94 462.32 760.8 463.19 763.95C464.05 767.1 462.2 770.35 459.04 771.22Z" />
				<path id="&lt;Path&gt;" class="shp1" d="M496.44 907.68C493.29 908.54 490.04 906.69 489.17 903.53C488.31 900.38 490.16 897.13 493.31 896.26C496.46 895.4 499.72 897.25 500.58 900.41C501.45 903.56 499.59 906.81 496.44 907.68Z" />
			</g>
			<path id="&lt;Path&gt;" class="shp1" d="M519.24 774.14C518.94 772.84 518.16 771.73 517.03 771.03C516.24 770.53 515.32 770.27 514.39 770.27C512.66 770.27 511.08 771.14 510.16 772.61L474.75 829.1L436.06 815.29C435.52 815.09 434.95 814.99 434.38 814.99C432.28 814.99 430.4 816.33 429.69 818.31C429.24 819.56 429.31 820.92 429.88 822.12C430.45 823.33 431.45 824.23 432.71 824.68L474.77 839.7C475.42 839.99 476.1 840.19 476.81 840.19C477.06 840.19 477.29 840.13 477.53 840.1C477.59 840.09 477.66 840.08 477.72 840.07C477.93 840.04 478.12 839.99 478.32 839.93C478.6 839.84 478.88 839.74 479.15 839.6C479.22 839.56 479.28 839.52 479.35 839.48C480.21 838.99 480.91 838.25 481.36 837.34L518.61 777.9C519.32 776.78 519.54 775.44 519.24 774.14Z" />
		</g>
		<g id="&lt;Group&gt;">
			<g id="&lt;Group&gt;">
				<path id="&lt;Compound Path&gt;" fill-rule="evenodd" class="shp0" d="M80.38 1266.51L86.28 1264.05C85.52 1258.5 85.52 1252.95 86.24 1247.52L80.33 1245.09C74.54 1242.71 71.79 1236.09 74.17 1230.31L77.71 1221.7C80.09 1215.92 86.71 1213.16 92.49 1215.54L98.4 1217.97C101.71 1213.61 105.62 1209.67 110.07 1206.26L107.61 1200.35C105.2 1194.58 107.93 1187.95 113.7 1185.55L122.3 1181.96C128.07 1179.56 134.7 1182.29 137.1 1188.06L139.57 1193.97C145.12 1193.21 150.67 1193.2 156.1 1193.92L158.53 1188.01C160.91 1182.23 167.52 1179.47 173.31 1181.85L181.92 1185.4C187.7 1187.78 190.46 1194.39 188.08 1200.18L185.65 1206.08C190.01 1209.4 193.95 1213.31 197.36 1217.75L203.27 1215.29C209.04 1212.89 215.67 1215.62 218.07 1221.39L221.66 1229.98C224.06 1235.75 221.33 1242.38 215.56 1244.79L209.65 1247.25C210.41 1252.8 210.42 1258.35 209.7 1263.78L215.61 1266.21C221.39 1268.59 224.15 1275.21 221.76 1280.99L218.22 1289.6C215.84 1295.39 209.22 1298.15 203.44 1295.76L197.53 1293.33C194.22 1297.69 190.31 1301.63 185.86 1305.04L188.33 1310.95C190.73 1316.72 188 1323.35 182.23 1325.76L173.64 1329.34C167.86 1331.75 161.24 1329.01 158.83 1323.24L156.37 1317.34C150.81 1318.1 145.26 1318.1 139.84 1317.38L137.4 1323.29C135.03 1329.08 128.41 1331.83 122.63 1329.45L114.01 1325.91C108.23 1323.53 105.47 1316.91 107.85 1311.13L110.29 1305.22C105.92 1301.9 101.99 1298 98.58 1293.55L92.67 1296.01C86.9 1298.42 80.27 1295.69 77.86 1289.92L74.28 1281.32C71.88 1275.55 74.6 1268.92 80.38 1266.51ZM164.23 1294.68C185.79 1285.69 195.98 1260.94 187 1239.38C178.01 1217.83 153.25 1207.64 131.7 1216.63C110.15 1225.61 99.95 1250.37 108.94 1271.92C117.92 1293.47 142.68 1303.66 164.23 1294.68Z" />
				<path id="&lt;Compound Path&gt;" fill-rule="evenodd" class="shp0" d="M217.71 1132.79L222.79 1132.91C224.04 1128.65 225.82 1124.62 228.1 1120.92L224.6 1117.25C221.18 1113.65 221.31 1107.97 224.9 1104.55L230.25 1099.45C233.84 1096.03 239.53 1096.17 242.95 1099.76L246.45 1103.43C250.26 1101.34 254.36 1099.74 258.69 1098.71L258.81 1093.63C258.93 1088.67 263.05 1084.75 268.01 1084.87L275.39 1085.05C280.35 1085.17 284.28 1089.28 284.15 1094.24L284.03 1099.32C288.3 1100.56 292.33 1102.35 296.03 1104.63L299.7 1101.13C303.29 1097.7 308.98 1097.84 312.4 1101.43L317.5 1106.78C320.92 1110.37 320.78 1116.06 317.19 1119.48L313.52 1122.98C315.61 1126.79 317.2 1130.89 318.24 1135.21L323.31 1135.34C328.27 1135.46 332.2 1139.58 332.08 1144.54L331.9 1151.92C331.78 1156.88 327.66 1160.8 322.7 1160.68L317.62 1160.57C316.38 1164.83 314.6 1168.86 312.33 1172.56L315.82 1176.23C319.24 1179.82 319.11 1185.5 315.51 1188.93L310.16 1194.03C306.58 1197.45 300.89 1197.31 297.46 1193.72L293.97 1190.05C290.16 1192.14 286.06 1193.73 281.73 1194.77L281.6 1199.85C281.49 1204.8 277.37 1208.73 272.41 1208.61L265.03 1208.43C260.07 1208.31 256.15 1204.19 256.26 1199.23L256.38 1194.16C252.12 1192.91 248.09 1191.12 244.39 1188.85L240.72 1192.35C237.13 1195.77 231.44 1195.64 228.02 1192.05L222.92 1186.7C219.5 1183.11 219.63 1177.42 223.23 1174L226.9 1170.5C224.81 1166.69 223.21 1162.59 222.18 1158.26L217.1 1158.14C212.14 1158.02 208.22 1153.9 208.34 1148.95L208.52 1141.56C208.64 1136.59 212.75 1132.67 217.71 1132.79ZM269.4 1180.27C287.92 1180.73 303.3 1166.07 303.74 1147.55C304.19 1129.03 289.54 1113.65 271.01 1113.2C252.49 1112.75 237.12 1127.41 236.67 1145.93C236.23 1164.45 250.88 1179.83 269.4 1180.27Z" />
			</g>
		</g>
		<g id="&lt;Group&gt;">
			<path id="&lt;Path&gt;" class="shp0" d="M663.85 191.1C663.04 184.45 663.3 179.02 664.61 174.84C668.88 161.28 695.27 142.73 694.59 116.99C693.92 91.46 677.97 50.08 627.45 57.74C580.1 64.94 568.76 108.95 577.54 133.15C588.64 163.76 613.82 162.86 624.7 177.67C626 179.44 627.79 185.62 630.06 196.23L663.85 191.1Z" />
			<path id="&lt;Path&gt;" class="shp0" d="M672.02 197.94C672.68 202.3 669.68 206.37 665.32 207.03L632.17 212.06C627.81 212.73 623.74 209.73 623.08 205.37C622.42 201.01 625.42 196.94 629.78 196.28L662.93 191.24C667.28 190.58 671.35 193.58 672.02 197.94Z" />
			<path id="&lt;Path&gt;" class="shp0" d="M674.41 213.72C675.08 218.08 672.08 222.15 667.72 222.81L634.57 227.85C630.21 228.51 626.14 225.51 625.48 221.15C624.82 216.79 627.81 212.73 632.17 212.06L665.32 207.03C669.68 206.37 673.75 209.36 674.41 213.72Z" />
			<path id="&lt;Path&gt;" class="shp0" d="M653.06 237.96C661.78 236.64 667.99 229.91 666.93 222.93L635.36 227.73C636.42 234.7 644.34 239.28 653.06 237.96Z" />
			<path id="&lt;Path&gt;" class="shp0" d="M643.24 192.64L609.77 113.57L628.88 121.42L633.69 102.25L642.47 118.23L659.29 103.55L651.33 192.55" />
		</g>
		<g id="&lt;Group&gt;">
			<path id="&lt;Path&gt;" class="shp0" d="M1507.8 481.86L1639.97 481.86C1653.04 481.86 1663.64 492.46 1663.64 505.53L1663.64 590.39C1663.64 603.46 1653.04 614.06 1639.97 614.06L1558.58 614.06L1519.62 653.02L1519.62 614.06L1507.8 614.06C1494.73 614.06 1484.14 603.46 1484.14 590.39L1484.14 505.53C1484.14 492.46 1494.73 481.86 1507.8 481.86Z" />
			<g id="&lt;Group&gt;">
				<path id="&lt;Path&gt;" class="shp0" d="M1606.59 549.41C1606.59 557.52 1613.16 564.09 1621.26 564.09C1629.36 564.09 1635.93 557.52 1635.93 549.41C1635.93 541.31 1629.36 534.74 1621.26 534.74C1613.16 534.74 1606.59 541.31 1606.59 549.41Z" />
				<path id="&lt;Path&gt;" class="shp0" d="M1559.22 549.41C1559.22 557.52 1565.78 564.09 1573.89 564.09C1581.99 564.09 1588.56 557.52 1588.56 549.41C1588.56 541.31 1581.99 534.74 1573.89 534.74C1565.78 534.74 1559.22 541.31 1559.22 549.41Z" />
				<path id="&lt;Path&gt;" class="shp0" d="M1511.84 549.41C1511.84 557.52 1518.41 564.09 1526.51 564.09C1534.62 564.09 1541.19 557.52 1541.19 549.41C1541.19 541.31 1534.62 534.74 1526.51 534.74C1518.41 534.74 1511.84 541.31 1511.84 549.41Z" />
			</g>
		</g>
		<path id="&lt;Path&gt;" class="shp0" d="M1414.69 64.55L1447.45 113.92L1501.84 105.3L1469.2 153.85L1487.08 206.54L1434.38 188.68L1389.79 221.97L1390.49 166.33L1344.43 130.26L1398.81 121.64L1414.69 64.55Z" />
		<path id="&lt;Path&gt;" class="shp0" d="M810.41 1559.71L780.24 1610.71L811.7 1655.9L753.77 1647.67L714.13 1686.72L707.25 1631.5L657.87 1605.87L708.25 1582.26L720.66 1525.09L752.11 1570.28L810.41 1559.71Z" />
		<path id="&lt;Path&gt;" class="shp0" d="M1684.57 726.4L1644.64 770.19L1666.23 820.84L1611.2 800.98L1564.44 831.14L1568.95 775.68L1525.82 740.52L1579.96 727.67L1603.75 674.22L1625.34 724.88L1684.57 726.4Z" />
		<g id="&lt;Group&gt;">
			<g id="&lt;Group&gt;">
				<path id="&lt;Path&gt;" class="shp0" d="M1118.11 1606.05C1123.28 1601.08 1131.5 1601.23 1136.47 1606.4C1141.44 1611.57 1141.28 1619.78 1136.12 1624.76C1130.95 1629.73 1122.73 1629.57 1117.76 1624.41C1112.79 1619.24 1112.95 1611.02 1118.11 1606.05Z" />
			</g>
			<g id="&lt;Group&gt;">
				<path id="&lt;Path&gt;" class="shp0" d="M1075.18 1647.38C1080.34 1642.41 1088.56 1642.57 1093.53 1647.73C1098.5 1652.9 1098.35 1661.12 1093.18 1666.09C1088.02 1671.06 1079.8 1670.9 1074.83 1665.74C1069.86 1660.57 1070.01 1652.35 1075.18 1647.38Z" />
			</g>
			<g id="&lt;Group&gt;">
				<path id="&lt;Path&gt;" class="shp0" d="M991.28 1728.14C996.44 1723.16 1004.67 1723.32 1009.64 1728.49C1014.61 1733.65 1014.45 1741.87 1009.29 1746.84C1004.12 1751.82 995.9 1751.66 990.93 1746.49C985.96 1741.33 986.12 1733.11 991.28 1728.14Z" />
			</g>
			<g id="&lt;Group&gt;">
				<path id="&lt;Path&gt;" class="shp0" d="M1046.9 1532.08C1052.07 1527.1 1060.29 1527.26 1065.26 1532.43C1070.23 1537.59 1070.08 1545.81 1064.91 1550.78C1059.74 1555.75 1051.53 1555.6 1046.55 1550.43C1041.58 1545.27 1041.74 1537.05 1046.9 1532.08Z" />
			</g>
			<g id="&lt;Group&gt;">
				<path id="&lt;Path&gt;" class="shp0" d="M1104.08 1546.94C1109.24 1541.96 1117.46 1542.12 1122.43 1547.28C1127.41 1552.45 1127.25 1560.67 1122.09 1565.64C1116.92 1570.62 1108.7 1570.46 1103.73 1565.29C1098.76 1560.13 1098.91 1551.91 1104.08 1546.94Z" />
			</g>
			<g id="&lt;Group&gt;">
				<path id="&lt;Path&gt;" class="shp0" d="M1015.08 1632.6C1020.25 1627.63 1028.47 1627.79 1033.44 1632.95C1038.41 1638.12 1038.25 1646.34 1033.09 1651.31C1027.92 1656.28 1019.7 1656.12 1014.73 1650.96C1009.76 1645.79 1009.92 1637.58 1015.08 1632.6Z" />
			</g>
			<g id="&lt;Group&gt;">
				<path id="&lt;Path&gt;" class="shp0" d="M973.7 1672.44C978.87 1667.46 987.09 1667.62 992.06 1672.78C997.03 1677.95 996.87 1686.17 991.71 1691.14C986.54 1696.11 978.32 1695.96 973.35 1690.79C968.38 1685.63 968.54 1677.41 973.7 1672.44Z" />
			</g>
			<g id="&lt;Group&gt;">
				<path id="&lt;Path&gt;" class="shp0" d="M1003.97 1573.41C1009.13 1568.43 1017.35 1568.59 1022.33 1573.76C1027.3 1578.92 1027.14 1587.14 1021.97 1592.11C1016.81 1597.08 1008.59 1596.93 1003.62 1591.76C998.65 1586.6 998.8 1578.38 1003.97 1573.41Z" />
			</g>
			<g id="&lt;Group&gt;">
				<path id="&lt;Path&gt;" class="shp0" d="M920.07 1654.16C925.24 1649.19 933.46 1649.35 938.43 1654.51C943.4 1659.68 943.24 1667.9 938.08 1672.87C932.91 1677.84 924.7 1677.69 919.72 1672.52C914.75 1667.36 914.91 1659.14 920.07 1654.16Z" />
			</g>
			<g id="&lt;Group&gt;">
				<path id="&lt;Path&gt;" class="shp0" d="M968.89 1677.66C960.73 1675.22 951.34 1672.41 940.72 1669.24" />
			</g>
			<g id="&lt;Group&gt;">
				<path id="&lt;Path&gt;" class="shp0" d="M996.56 1725.07C992.86 1713.51 989.65 1703.49 986.93 1695" />
			</g>
			<g id="&lt;Group&gt;">
				<path id="&lt;Path&gt;" class="shp0" d="M1016.26 1595.61C1018.83 1605.67 1022.37 1619.5 1024.81 1629.02" />
			</g>
			<g id="&lt;Group&gt;">
				<path id="&lt;Path&gt;" class="shp0" d="M1046.55 1550.43C1039.31 1557.41 1030.65 1565.74 1023.26 1572.86" />
			</g>
			<g id="&lt;Group&gt;">
				<path id="&lt;Path&gt;" class="shp0" d="M1099.79 1552.83C1090.46 1550.41 1078.74 1547.36 1069.2 1544.88" />
			</g>
			<g id="&lt;Group&gt;">
				<path id="&lt;Path&gt;" class="shp0" d="M1123.82 1601.52C1121.49 1591.7 1118.39 1578.66 1116.12 1569.09" />
			</g>
			<g id="&lt;Group&gt;">
				<path id="&lt;Path&gt;" class="shp0" d="M1094.74 1646.57C1101.73 1639.84 1110.82 1631.09 1117.59 1624.57" />
			</g>
			<g id="&lt;Group&gt;">
				<path id="&lt;Path&gt;" class="shp0" d="M1038.13 1643.06C1047.45 1645.83 1061.09 1649.88 1071.11 1652.85" />
			</g>
			<g id="&lt;Group&gt;">
				<path id="&lt;Path&gt;" class="shp0" d="M992.06 1672.78L1014.73 1650.96" />
			</g>
		</g>
		<g id="&lt;Group&gt;">
			<g id="&lt;Group&gt;">
				<g id="&lt;Group&gt;">
					<g id="&lt;Group&gt;">
						<g id="&lt;Group&gt;">
							<path id="&lt;Path&gt;" class="shp0" d="M889.45 311.92L889.45 311.95C889.45 311.93 889.45 311.92 889.45 311.92Z" />
							<path id="&lt;Path&gt;" class="shp0" d="M887.26 312.08L887.25 312.05C887.26 312.05 887.26 312.07 887.26 312.08Z" />
							<path id="&lt;Path&gt;" class="shp0" d="M912.5 306.95C903.13 309.79 894.73 311.67 887.29 312.61C884.53 312.79 878.23 312.43 863.79 309.9C841.3 305.95 809.88 327.4 812.32 369.23C814.21 401.53 847.76 453.33 873.24 451.78C879.14 451.43 891.48 444.22 896.26 443.93C901.03 443.65 914.34 449.29 920.25 448.93C945.73 447.39 972.77 391.92 970.75 359.63C968.12 317.81 934.35 300.31 912.5 306.95Z" />
						</g>
					</g>
				</g>
				<path id="&lt;Path&gt;" class="shp0" d="M889.45 311.92C894.69 290.6 889.08 272.14 872.62 256.54" />
			</g>
			<path id="&lt;Path&gt;" class="shp0" d="M889.45 284.23L907.99 268.7C904.67 260.31 905.64 252.02 910.91 243.84C918.38 232.22 932.5 226.59 953.25 226.94C955.24 247.83 948.97 261.51 934.43 267.98C925.68 271.86 916.87 272.1 907.99 268.7" />
		</g>
		<g id="&lt;Group&gt;">
			<g id="&lt;Group&gt;">
				<path id="&lt;Path&gt;" class="shp3" d="M1266.41 921.49C1267.22 945.86 1082.7 1077.22 896.49 1078.79C707.23 1080.39 516.23 951.91 516.23 921.63L516.23 1035.76C516.23 1066.04 642.65 1175.04 896.49 1175.04C1137.77 1175.04 1267.22 1060.14 1266.41 1035.76L1266.41 921.49Z" />
				<g id="&lt;Group&gt;">
					<path id="&lt;Path&gt;" class="shp3" d="M1266.41 922.24C1266.41 922.21 1266.4 922.17 1266.4 922.13L1266.4 922.35C1266.4 922.32 1266.41 922.28 1266.41 922.24Z" />
					<path id="&lt;Path&gt;" class="shp4" d="M1266.21 917.91C1260.01 843.42 1094.55 783.73 891.32 783.73C687.99 783.73 522.47 843.47 516.42 918.01C516.3 919.42 516.23 920.83 516.23 922.24C516.23 998.12 681.47 1077.77 886.32 1078.76C887.99 1078.77 889.65 1078.78 891.32 1078.78C891.53 1078.78 891.74 1078.78 891.96 1078.78C893.47 1078.78 894.97 1078.81 896.48 1078.79C897.39 1078.79 898.29 1078.76 899.2 1078.74C1102.62 1077.19 1266.24 997.83 1266.4 922.35L1266.4 922.13C1266.4 920.72 1266.32 919.32 1266.21 917.91Z" />
				</g>
				<path id="&lt;Path&gt;" class="shp3" d="M1246.84 604.31L891.32 798.47L535.8 604.31L536.48 916.34C536.48 944.98 647.25 1051.34 896.2 1051.34C1163.91 1051.34 1246.92 939.4 1246.16 916.34L1246.84 604.31Z" />
				<g id="&lt;Group&gt;" style="opacity: 0.502;mix-blend-mode: multiply">
					<path id="&lt;Path&gt;" class="shp5" d="M536.26 849.1C536.26 809.77 596.44 807.22 678.65 844.1C815.9 905.7 973.32 1051.1 1086.54 1027.54C1193.14 996.86 1237.37 944.85 1244.95 922.71C1245.46 917.88 1245.88 913.81 1246.17 910.9L1246.48 768.1C1241.3 767.94 1101.7 763.71 963.33 759.14L891.32 798.47L809.6 753.84C737.9 751.22 686.74 749.01 687.65 748.1C689.65 746.1 641.98 737.1 544.65 721.1L536.06 726.19L536.26 849.1Z" />
				</g>
				<g id="&lt;Group&gt;" style="opacity: 0.702">
					<path id="&lt;Path&gt;" class="shp6" d="M1246.65 876.44L1246.65 761.77L1132.65 811.1L1138.65 1015.1L1239.98 928.44L1246.65 876.44Z" />
				</g>
				<g id="&lt;Group&gt;" style="opacity: 0;mix-blend-mode: multiply">
					<path id="&lt;Path&gt;" class="shp5" d="M703.95 957.44C758.14 976.54 822.22 988.44 891.22 988.44C1109.23 988.44 1246.16 907.1 1246.16 845.6L1246.84 628.6L891.32 593.09L535.8 618.27L536.48 805.77C536.48 856.8 592.73 912.11 680.18 948.34L703.95 957.44Z" />
				</g>
				<path id="&lt;Path&gt;" class="shp3" d="M1277.82 600.11L891.08 426.16L507.42 600.11L323.68 636.09L323.68 673.98L323.7 673.98L891.08 925.97L1463.53 673.98L1463.55 673.98L1463.55 636.09L1277.82 600.11Z" />
				<path id="&lt;Path&gt;" class="shp4" d="M891.08 378.56L323.68 636.09L891.08 888.07L1463.55 636.09L891.08 378.56Z" />
				<path id="&lt;Path&gt;" class="shp7" d="M899.32 603.31C727.35 654.43 628.32 703.01 602.21 749.07C598.09 756.32 595.39 768.66 593.65 783.15L616.15 796.1C616.32 775.77 617.68 763.37 620.23 758.91C646.29 713.31 746.76 664.21 921.65 611.6L899.32 603.31Z" />
				<g id="&lt;Group&gt;" style="opacity: 0.502;mix-blend-mode: multiply">
					<path id="&lt;Path&gt;" class="shp5" d="M943.44 607.02C943.44 620.33 920.86 631.13 893.04 631.13C865.2 631.13 842.64 620.33 842.64 607.02C842.64 593.71 865.2 582.91 893.04 582.91C920.86 582.91 943.44 593.71 943.44 607.02Z" />
				</g>
				<g id="&lt;Group&gt;">
					<g id="&lt;Group&gt;">
						<path id="&lt;Path&gt;" class="shp8" d="M587.17 878.95C586.18 857.83 582.83 766.75 597.02 741.71C633.19 677.9 866.13 605.62 889.86 598.4L898.71 605.09C854.95 618.26 644.17 684.46 608.09 747.59C593.88 772.47 598.39 857.91 599.6 877.08L587.17 878.95Z" />
					</g>
					<path id="&lt;Path&gt;" class="shp9" d="M857.02 618.26L872 613.97C867.39 609.12 864.73 606.51 864.01 606.16C863.3 605.8 861.15 606.5 857.59 608.27L854.69 609.47C857.29 609.03 860.38 616.92 857.02 618.26Z" />
				</g>
				<g id="&lt;Group&gt;">
					<path id="&lt;Path&gt;" class="shp3" d="M939.97 594.8C939.97 607.19 918.95 617.24 893.04 617.24C867.12 617.24 846.12 607.19 846.12 594.8C846.12 582.39 867.12 572.35 893.04 572.35C918.95 572.35 939.97 582.39 939.97 594.8Z" />
				</g>
				<g id="&lt;Group&gt;">
					<path id="&lt;Path&gt;" class="shp10" d="M601.77 975.58L582.15 975.58L582.15 912.43L601.77 912.43L601.77 975.58Z" />
				</g>
				<g id="&lt;Group&gt;">
					<path id="&lt;Path&gt;" class="shp11" d="M659.36 1133.91C659.36 1125.57 651.95 1059.64 639.15 1001.6C629.16 956.35 618.05 915.08 590.52 915.08C527.69 915.08 520.39 1116.74 521.66 1133.91C522.41 1144 527.57 1154.41 542.09 1162.55C546.65 1165.1 553.81 1167.04 556.66 1167.74C565.61 1169.93 576.74 1171.22 590.51 1171.22C596.98 1171.22 602.93 1171.26 608.27 1170.33C615.32 1169.1 618.65 1168.77 622.51 1167.93C651.11 1161.71 659.36 1145.28 659.36 1133.91Z" />
					<path id="&lt;Path&gt;" class="shp12" d="M597 915.93C595.14 915.43 593.18 915.15 591.14 915.11C588 916.99 583.9 919.6 578.65 923.1C537.14 950.78 525.91 1093.68 525.65 1147.22C528.79 1152.74 533.97 1158 542.09 1162.55C546.65 1165.1 553.81 1167.04 556.66 1167.74C560.57 1168.7 564.92 1169.47 569.71 1170.05C570.6 1079.19 581.93 938.51 588.65 924.1C591.92 921.14 594.7 918.41 597 915.93Z" />
					<path id="&lt;Path&gt;" class="shp13" d="M646.49 1157.31C656.03 1149.99 659.36 1141.06 659.36 1133.91C659.36 1119.07 653.36 915.08 590.52 915.08C581.85 915.08 574.24 918.93 567.56 925.6C563.94 930.78 595.1 932.79 604.65 947.1C627.32 981.1 646.65 1045.1 646.65 1155.77C646.65 1156.3 646.54 1156.8 646.49 1157.31Z" />
				</g>
			</g>
			<g id="&lt;Group&gt;" style="opacity: 0.2;mix-blend-mode: multiply">
				<path id="&lt;Path&gt;" class="shp5" d="M1315.98 1234.44C1270.44 1250.17 1231.73 1265.49 1193.42 1282.18C1173.01 1231.5 1041.33 1192.4 881.92 1192.4C708.35 1192.4 567.65 1238.75 567.65 1295.93C567.65 1352.3 704.42 1398.15 874.61 1399.43C822.21 1407.96 784.65 1424.97 784.65 1444.1C784.65 1467.51 813.02 1496.45 851.65 1506.1C903.65 1519.1 927.65 1509.1 942.65 1504.1C1030.69 1474.76 1411.84 1312.94 1435.98 1299.1C1463.79 1283.17 1352.65 1221.77 1315.98 1234.44Z" />
			</g>
			<path id="&lt;Path&gt;" class="shp14" d="M1314.65 1239.1C1267.98 1251.1 1231.73 1265.49 1193.42 1282.18C1173.01 1231.5 1041.33 1192.4 881.92 1192.4C708.35 1192.4 567.65 1238.75 567.65 1295.93C567.65 1352.3 704.42 1398.15 874.61 1399.43C822.21 1407.96 784.65 1424.97 784.65 1444.1C784.65 1467.51 813.02 1496.45 851.65 1506.1C903.65 1519.1 927.65 1509.1 942.65 1504.1C1030.69 1474.76 1411.84 1312.94 1435.98 1299.1C1463.79 1283.17 1350.15 1229.97 1314.65 1239.1Z" />
			<g id="&lt;Group&gt;">
				<path id="&lt;Path&gt;" class="shp15" d="M1173 1105.47C1216.98 1164.7 1225.32 1233.01 1191.63 1258.03C1157.93 1283.05 1094.96 1255.3 1050.97 1196.07C1006.99 1136.83 998.65 1068.53 1032.35 1043.51C1066.05 1018.49 1129.02 1046.23 1173 1105.47Z" />
				<g id="&lt;Group&gt;">
					<path id="&lt;Path&gt;" class="shp16" d="M1350.3 779.85L1350.51 780.09C1380.43 755.31 1437.84 774.2 1479.2 822.6C1518.11 868.14 1529.01 923.65 1505.89 951.44L920.83 1483.7L764.38 1311.17L1350.3 779.85Z" />
					<path id="&lt;Path&gt;" class="shp17" d="M790.27 1442.81C771.97 1421.39 754.85 1400.06 749.56 1378.15C747.51 1369.66 767.03 1359.57 763.27 1352.43C756.57 1339.74 757.26 1318.51 768.85 1308.61C798.61 1283.17 856.47 1302.02 898.07 1350.7C939.67 1399.38 949.26 1459.47 919.5 1484.91C889.73 1510.34 831.87 1491.5 790.27 1442.81Z" />
					<g id="&lt;Group&gt;">
						<path id="&lt;Path&gt;" class="shp18" d="M1183.33 985.14L1183.47 985.29C1203.63 968.59 1242.34 981.33 1270.21 1013.95C1296.43 1044.63 1303.78 1082.05 1288.2 1100.78L1288.77 1101.41L893.89 1459.5C907.59 1435.04 901.37 1407.15 875.23 1375.84C851.5 1347.42 826.93 1337.48 801.52 1346.03L1183.33 985.14Z" />
						<path id="&lt;Path&gt;" class="shp18" d="M866.55 1369.76C860.75 1362.98 825.4 1402.88 820.42 1396.25C801.36 1370.82 794.02 1359.74 809.93 1346.14C829.99 1329 847.19 1343.03 875.23 1375.84C903.27 1408.65 913.05 1443.17 892.99 1460.31C884.35 1467.7 901.13 1453.36 900.66 1437.31C900.05 1416.1 882.51 1388.44 866.55 1369.76Z" />
					</g>
					<path id="&lt;Path&gt;" class="shp19" d="M898.07 1350.7C856.47 1302.02 798.61 1283.17 768.85 1308.61C767.56 1309.7 766.38 1310.9 765.24 1312.12L764.38 1311.17L1350.3 779.85L1350.51 780.09C1380.43 755.31 1437.84 774.2 1479.2 822.6C1518.11 868.14 1529.01 923.65 1505.89 951.44L925.32 1487.1L920.82 1483.68C948.93 1457.6 939.03 1398.63 898.07 1350.7Z" />
					<path id="&lt;Path&gt;" class="shp20" d="M1243.66 1128.49C1243.52 1127.98 1276.78 1146.57 1276.65 1146.1L1517.65 917.1C1519.65 875.1 1494.88 840.84 1479.14 822.42C1476.08 818.84 1472.92 815.43 1469.7 812.18L1231.1 1025.41C1232.42 1020.19 1233.13 1017.42 1234.48 1012.05C1226.39 1012.86 1222.34 1013.27 1214.24 1014.08C1213.99 1008.88 1213.87 1006.28 1213.62 1001.08C1205.9 1003.01 1202.04 1003.98 1194.31 1005.9C1192.55 1001.25 1191.67 998.92 1189.91 994.26C1182.87 997.13 1179.35 998.57 1172.3 1001.45C1169.25 997.51 1167.72 995.54 1164.66 991.6C1158.51 995.22 1155.44 997.03 1149.28 1000.65C1145.16 997.55 1143.1 996 1138.97 992.9C1133.89 997.07 1131.35 999.16 1126.27 1003.33C1121.33 1001.14 1118.85 1000.04 1113.91 997.84C1109.99 1002.38 1108.03 1004.65 1104.11 1009.19C1098.58 1007.92 1095.82 1007.29 1090.29 1006.02C1087.59 1010.75 1086.24 1013.11 1083.54 1017.83C1077.66 1017.5 1074.72 1017.34 1068.83 1017.01C1067.37 1021.75 1066.64 1024.12 1065.19 1028.86C1059.17 1029.45 1056.16 1029.74 1050.14 1030.33C1049.92 1034.92 1049.81 1037.22 1049.6 1041.82C1043.64 1043.28 1040.67 1044.02 1034.71 1045.48C1035.69 1049.81 1036.2 1051.94 1037.14 1056.3C1031.43 1058.63 1028.57 1059.79 1022.88 1062.09C1025 1066 1026.07 1067.94 1028.33 1071.7C1023.06 1074.8 1020.4 1076.38 1015.15 1079.46C1018.37 1082.8 1020.01 1084.43 1023.42 1087.55C1018.69 1091.46 1016.28 1093.45 1011.65 1097.25C1015.85 1099.91 1018.03 1101.16 1022.55 1103.48C1018.52 1108.11 1016.48 1110.45 1012.65 1114.86C1017.74 1116.71 1020.38 1117.53 1025.97 1118.85C1022.97 1123.91 1021.44 1126.47 1018.5 1131.47C1024.56 1132.16 1027.73 1132.34 1034.15 1132.64C1032.17 1138.19 1031.17 1140.97 1029.25 1146.45C1035.95 1146.03 1039.39 1145.72 1046.3 1145.08C1045.5 1150.94 1045.08 1153.9 1044.36 1159.68C1051.32 1158.25 1054.86 1157.46 1061.96 1155.86C1062.39 1161.91 1062.59 1164.95 1063.23 1170.77C1066.69 1169.55 1069.29 1168.62 1071.92 1167.66L887.17 1332.78L912.75 1355.4L938.65 1450.1L1228.65 1186.1C1230.97 1186 1220.14 1152.46 1223.16 1152.3C1223.25 1149.68 1223.33 1147.42 1223.41 1145.31L1241.73 1128.49C1242.36 1128.49 1242.97 1128.49 1243.66 1128.49Z" />
					<g id="&lt;Group&gt;" style="opacity: 0.4">
						<path id="&lt;Path&gt;" class="shp21" d="M1505.89 951.44C1513.37 942.45 1517.27 930.56 1517.83 917.05L1517.65 917.1L1284.85 1137.97L1197.67 1214.2L947.65 1442.1L922.9 1485.26L925.32 1487.1L1505.89 951.44Z" />
					</g>
					<g id="&lt;Group&gt;">
						<path id="&lt;Path&gt;" class="shp1" d="M906.01 1501.95C923.37 1495.91 936.37 1483.31 943.1 1465.74C954.9 1434.97 945.07 1393.93 916.81 1355.95C864.62 1285.8 811.98 1278.26 780.13 1294.56C768.54 1300.5 760.98 1309.21 757.67 1320.43C749.5 1348.11 770.08 1383.76 781.14 1402.92L782.75 1405.7C796.89 1430.35 853.51 1478.94 885.34 1466.06C895.7 1461.88 902.63 1455.2 905.93 1446.21C913.16 1426.53 900.38 1402.17 893.51 1389.08L892.5 1387.16C883.17 1369.22 837.41 1323.9 811.38 1336.7C803.33 1340.66 798.3 1347.13 796.84 1355.41C793.93 1371.91 806.26 1391.85 815.25 1401.22C817.99 1404.08 822.53 1404.17 825.39 1401.42C828.25 1398.68 828.34 1394.14 825.6 1391.28C818.61 1384 809.13 1368.35 810.97 1357.89C811.63 1354.16 813.77 1351.51 817.72 1349.57C831.5 1342.74 871.26 1377.41 879.77 1393.78L880.8 1395.75C886.22 1406.07 897.49 1427.55 892.46 1441.26C890.59 1446.36 886.5 1450.11 879.97 1452.75C859.98 1460.9 809.15 1422.9 795.19 1398.56L793.57 1395.75C783.58 1378.45 765 1346.27 771.43 1324.49C773.62 1317.08 778.6 1311.47 786.68 1307.33C812.11 1294.31 858.41 1301.48 905.3 1364.51C930.61 1398.52 939.73 1434.45 929.7 1460.61C923.65 1476.38 911 1486.96 894.04 1490.37C856.77 1497.89 784.6 1457 756.34 1375.79C755.04 1372.05 750.95 1370.07 747.2 1371.38C743.46 1372.68 741.49 1376.77 742.79 1380.51C774.02 1470.25 853.59 1513.17 896.88 1504.44C900.04 1503.8 903.09 1502.97 906.01 1501.95Z" />
					</g>
					<path id="&lt;Path&gt;" class="shp22" d="M1171.24 1100.61C1138.82 1062.67 1097.8 1040.54 1064.11 1039.38L1030.3 1070.04C1031.58 1069.67 1033.06 1068.94 1034.86 1067.6C1061.07 1047.99 1121.69 1074.22 1156.54 1115.01C1195.83 1160.98 1209.62 1214.79 1184.15 1248.3L1214.35 1220.43C1220.48 1186.48 1205.12 1140.26 1171.24 1100.61Z" />
				</g>
				<path id="&lt;Path&gt;" class="shp15" d="M1177.24 1094.61C1129.76 1039.06 1063.85 1017.37 1029.51 1045.82L1024.23 1051.32L1019.6 1060.92L1021.16 1065.4C1030.29 1057.83 1030.7 1069.2 1040.86 1061.6C1067.07 1041.99 1127.69 1068.22 1162.54 1109.01C1202.94 1156.29 1216.4 1211.85 1187.9 1245.1C1185.28 1248.16 1192.82 1254.03 1190.28 1257.08C1191.71 1257.3 1192.61 1257.27 1192.96 1257C1196.76 1254.09 1201.74 1249.26 1207.88 1242.52C1234.42 1210.62 1221.91 1146.89 1177.24 1094.61Z" />
				<g id="&lt;Group&gt;">
					<path id="&lt;Path&gt;" class="shp23" d="M1241.15 1037.59C1193.67 982.03 1127.76 960.34 1093.42 988.79L1093.18 988.52L1030.7 1044.86C1065.54 1018.79 1130.34 1040.54 1176.92 1095.05C1221.59 1147.33 1234.11 1211.05 1207.57 1242.96L1271.79 1185.49C1298.33 1153.58 1285.82 1089.86 1241.15 1037.59Z" />
					<path id="&lt;Path&gt;" class="shp24" d="M1241.15 1037.59C1240.85 1037.23 1240.54 1036.9 1240.23 1036.55C1226.46 1036.96 1210.97 1037.73 1210.15 1039.1C1209.06 1040.91 1178.2 1065.18 1161.56 1078.88C1166.84 1083.9 1171.99 1089.28 1176.92 1095.05C1203.8 1126.5 1219.01 1162.09 1221.11 1192.41L1285.21 1133.17C1282.65 1103.25 1267.5 1068.43 1241.15 1037.59Z" />
				</g>
				<g id="&lt;Group&gt;">
					<g id="&lt;Group&gt;">
						<g id="&lt;Group&gt;">
							<g id="&lt;Group&gt;">
								<path id="&lt;Path&gt;" class="shp25" d="M1320.62 1051.56L1318.4 1065.1L1166.86 1071.9L1162.28 1058.6L1320.62 1051.56Z" />
							</g>
							<g id="&lt;Group&gt;">
								<path id="&lt;Path&gt;" class="shp26" d="M1287.32 1006.39L1320.62 1051.56L1162.28 1058.6L1205.21 1008.59L1287.32 1006.39Z" />
							</g>
						</g>
						<g id="&lt;Group&gt;">
							<g id="&lt;Group&gt;">
								<path id="&lt;Path&gt;" class="shp25" d="M1169.91 1141.49L1174.5 1154.79L1092.9 1108.46L1088.31 1095.16L1169.91 1141.49Z" />
							</g>
							<g id="&lt;Group&gt;">
								<path id="&lt;Path&gt;" class="shp25" d="M1264.94 1116.41L1269.53 1129.71L1174.5 1154.79L1169.91 1141.49L1264.94 1116.41Z" />
							</g>
							<g id="&lt;Group&gt;">
								<path id="&lt;Path&gt;" class="shp26" d="M1160.97 1060.12L1264.94 1116.41L1169.91 1141.49L1088.31 1095.16L1160.97 1060.12Z" />
							</g>
						</g>
						<path id="&lt;Path&gt;" class="shp27" d="M1186.68 1124.93L1191.22 1113.61L1208.15 1111.65L1209.13 1100.75L1226.29 1096.52L1225.98 1095.32L1160.97 1060.12L1088.31 1095.16L1158.25 1134.87L1162.87 1135.76L1170.72 1124.52L1186.68 1124.93Z" />
					</g>
					<g id="&lt;Group&gt;">
						<g id="&lt;Group&gt;">
							<path id="&lt;Path&gt;" class="shp28" d="M1190.73 949.29L1199.9 975.88L1202.43 985.91L1193.26 959.32L1190.73 949.29Z" />
						</g>
						<g id="&lt;Group&gt;">
							<path id="&lt;Path&gt;" class="shp29" d="M1021.64 1024.95L1030.81 1051.55L1024.73 1042.87L1015.56 1016.28L1021.64 1024.95Z" />
						</g>
						<g id="&lt;Group&gt;">
							<path id="&lt;Path&gt;" class="shp29" d="M1210.4 955.03L1219.58 981.63L1218.5 992.54L1209.33 965.94L1210.4 955.03Z" />
						</g>
						<g id="&lt;Group&gt;">
							<path id="&lt;Path&gt;" class="shp29" d="M1015.53 1040.07L1024.7 1066.66L1015.43 1059.7L1006.26 1033.11L1015.53 1040.07Z" />
						</g>
						<g id="&lt;Group&gt;">
							<path id="&lt;Path&gt;" class="shp29" d="M1226.26 963.94L1235.43 990.54L1230.84 1001.85L1221.67 975.25L1226.26 963.94Z" />
						</g>
						<g id="&lt;Group&gt;">
							<path id="&lt;Path&gt;" class="shp29" d="M1014.17 1054.62L1023.34 1081.22L1011.27 1076.28L1002.09 1049.68L1014.17 1054.62Z" />
						</g>
						<g id="&lt;Group&gt;">
							<path id="&lt;Path&gt;" class="shp29" d="M1237.67 975.62L1246.84 1002.22L1238.89 1013.44L1229.72 986.85L1237.67 975.62Z" />
						</g>
						<g id="&lt;Group&gt;">
							<path id="&lt;Path&gt;" class="shp29" d="M1017.58 1068L1026.75 1094.59L1012.41 1091.88L1003.24 1065.28L1017.58 1068Z" />
						</g>
						<g id="&lt;Group&gt;">
							<path id="&lt;Path&gt;" class="shp29" d="M1244.08 989.57L1253.25 1016.16L1242.3 1026.82L1233.13 1000.22L1244.08 989.57Z" />
						</g>
						<g id="&lt;Group&gt;">
							<path id="&lt;Path&gt;" class="shp29" d="M1025.64 1079.58L1034.81 1106.18L1018.82 1105.83L1009.65 1079.23L1025.64 1079.58Z" />
						</g>
						<g id="&lt;Group&gt;">
							<path id="&lt;Path&gt;" class="shp29" d="M1245.2 1005.17L1254.38 1031.76L1240.94 1041.38L1231.77 1014.79L1245.2 1005.17Z" />
						</g>
						<g id="&lt;Group&gt;">
							<path id="&lt;Path&gt;" class="shp29" d="M1037.96 1088.91L1047.14 1115.5L1030.21 1117.5L1021.03 1090.91L1037.96 1088.91Z" />
						</g>
						<g id="&lt;Group&gt;">
							<path id="&lt;Path&gt;" class="shp29" d="M1241.04 1021.74L1250.21 1048.34L1234.85 1056.47L1225.67 1029.88L1241.04 1021.74Z" />
						</g>
						<g id="&lt;Group&gt;">
							<path id="&lt;Path&gt;" class="shp29" d="M1054.06 1095.54L1063.23 1122.13L1046.1 1126.4L1036.93 1099.8L1054.06 1095.54Z" />
						</g>
						<g id="&lt;Group&gt;">
							<path id="&lt;Path&gt;" class="shp30" d="M1231.75 1038.55L1240.92 1065.15L1224.3 1071.48L1215.12 1044.88L1231.75 1038.55Z" />
						</g>
						<g id="&lt;Group&gt;">
							<path id="&lt;Path&gt;" class="shp30" d="M1073.18 1099.19L1082.35 1125.78L1065.74 1132.16L1056.57 1105.56L1073.18 1099.19Z" />
						</g>
						<g id="&lt;Group&gt;">
							<path id="&lt;Path&gt;" class="shp29" d="M1215.12 1044.88L1224.3 1071.48L1226.91 1081.47L1217.73 1054.88L1215.12 1044.88Z" />
						</g>
						<g id="&lt;Group&gt;">
							<path id="&lt;Path&gt;" class="shp30" d="M1217.73 1054.88L1226.91 1081.47L1209.75 1085.71L1200.57 1059.11L1217.73 1054.88Z" />
						</g>
						<g id="&lt;Group&gt;">
							<path id="&lt;Path&gt;" class="shp30" d="M1094.49 1099.7L1103.67 1126.3L1088.36 1134.46L1079.19 1107.87L1094.49 1099.7Z" />
						</g>
						<g id="&lt;Group&gt;">
							<path id="&lt;Path&gt;" class="shp29" d="M1079.19 1107.87L1088.36 1134.46L1082.35 1125.78L1073.18 1099.19L1079.19 1107.87Z" />
						</g>
						<g id="&lt;Group&gt;">
							<path id="&lt;Path&gt;" class="shp29" d="M1199.59 1070.02L1208.76 1096.62L1191.84 1098.57L1182.67 1071.98L1199.59 1070.02Z" />
						</g>
						<g id="&lt;Group&gt;">
							<path id="&lt;Path&gt;" class="shp30" d="M1200.57 1059.11L1209.75 1085.71L1208.76 1096.62L1199.59 1070.02L1200.57 1059.11Z" />
						</g>
						<g id="&lt;Group&gt;">
							<path id="&lt;Path&gt;" class="shp30" d="M1117.11 1097.04L1126.28 1123.64L1112.88 1133.29L1103.71 1106.69L1117.11 1097.04Z" />
						</g>
						<g id="&lt;Group&gt;">
							<path id="&lt;Path&gt;" class="shp29" d="M1103.71 1106.69L1112.88 1133.29L1103.67 1126.3L1094.49 1099.7L1103.71 1106.69Z" />
						</g>
						<g id="&lt;Group&gt;">
							<path id="&lt;Path&gt;" class="shp29" d="M1178.13 1083.29L1187.3 1109.89L1171.33 1109.48L1162.16 1082.88L1178.13 1083.29Z" />
						</g>
						<g id="&lt;Group&gt;">
							<path id="&lt;Path&gt;" class="shp30" d="M1182.67 1071.98L1191.84 1098.57L1187.3 1109.89L1178.13 1083.29L1182.67 1071.98Z" />
						</g>
						<g id="&lt;Group&gt;">
							<path id="&lt;Path&gt;" class="shp30" d="M1139.98 1091.37L1149.15 1117.97L1138.31 1128.64L1129.13 1102.04L1139.98 1091.37Z" />
						</g>
						<g id="&lt;Group&gt;">
							<path id="&lt;Path&gt;" class="shp29" d="M1129.13 1102.04L1138.31 1128.64L1126.28 1123.64L1117.11 1097.04L1129.13 1102.04Z" />
						</g>
						<g id="&lt;Group&gt;">
							<path id="&lt;Path&gt;" class="shp29" d="M1154.31 1094.13L1163.48 1120.72L1149.15 1117.97L1139.98 1091.37L1154.31 1094.13Z" />
						</g>
						<g id="&lt;Group&gt;">
							<path id="&lt;Compound Path&gt;" class="shp31" d="M1215.11 1044.85L1217.72 1054.86L1200.56 1059.09L1199.58 1069.99L1182.66 1071.95L1178.12 1083.27L1162.15 1082.86L1154.3 1094.1L1139.97 1091.35L1129.12 1102.02L1117.1 1097.02L1103.7 1106.67L1094.49 1099.68L1079.18 1107.84L1073.17 1099.16L1056.56 1105.54L1054.05 1095.51L1036.92 1099.77L1037.96 1088.88L1021.03 1090.88L1025.63 1079.55L1009.64 1079.21L1017.57 1067.98L1003.24 1065.26L1014.16 1054.6L1002.08 1049.66L1015.52 1040.04L1006.25 1033.08L1021.63 1024.93L1015.55 1016.25L1032.18 1009.92L1029.57 999.92L1046.73 995.69L1047.7 984.81L1064.62 982.85L1069.16 971.53L1085.13 971.94L1093 960.7L1107.3 963.46L1118.18 952.78L1130.19 957.76L1143.58 948.13L1152.79 955.13L1168.14 946.94L1174.13 955.64L1190.72 949.26L1193.25 959.29L1210.39 955.01L1209.33 965.92L1226.25 963.92L1221.66 975.23L1237.66 975.6L1229.71 986.82L1244.07 989.54L1233.12 1000.2L1245.19 1005.14L1231.76 1014.76L1241.03 1021.72L1225.66 1029.85L1231.74 1038.53L1215.11 1044.85Z" />
						</g>
						<g id="&lt;Group&gt;">
							<path id="&lt;Path&gt;" class="shp30" d="M1162.16 1082.88L1171.33 1109.48L1163.48 1120.72L1154.31 1094.13L1162.16 1082.88Z" />
						</g>
					</g>
				</g>
			</g>
		</g>
		<path id="&lt;Compound Path&gt;" fill-rule="evenodd" class="shp0" d="M1640.93 215.03L1628.81 231.69C1626.01 231.42 1623.01 230.5 1619.93 229.41C1616.72 228.27 1612.54 226.21 1610.42 224.45L1610.14 223.19L1668.94 147.05C1672.46 147.72 1677.69 149.29 1681.16 150.52C1684.49 151.7 1689.67 153.83 1692.65 155.6L1689.78 251.72C1686.41 252.26 1680.96 251.34 1677.11 249.97C1670.56 247.65 1668.17 244.2 1668.74 234.43L1669.31 225.09C1667.59 224.63 1665.54 223.9 1664.25 223.45L1646.02 216.98C1644.48 216.43 1642.56 215.75 1640.93 215.03ZM1651.38 200.66C1653.04 201.26 1655.14 201.86 1656.55 202.36L1665.93 205.68C1667.21 206.14 1668.96 206.9 1670.51 207.45L1671.15 198.71C1671.69 190.67 1672.64 179.01 1673.46 169.76L1672.69 169.49C1668.86 176.22 1662.26 185.45 1657.83 191.83L1651.38 200.66Z" />
		<path id="&lt;Compound Path&gt;" fill-rule="evenodd" class="shp0" d="M350.07 70.4C371.06 63.88 388.03 67.88 393.94 86.91C396.75 95.97 393.58 106.05 386.92 111.76C398.06 111.95 409.59 120.29 413.34 132.37C419.9 153.5 408.01 167.46 384.91 174.63C373.28 178.24 360.66 181.82 347.58 185.55L346.19 184.82L314.66 83.21L315.38 81.83C327.37 77.77 339.2 73.77 350.07 70.4ZM350.84 115.51L361.56 112.19C371.82 109 372.72 101.77 370.9 95.88C369.07 89.99 364.33 84.84 354.21 87.98C351.49 88.83 347.11 90.18 343.29 91.21L350.84 115.51ZM356.18 132.73L365.32 162.17C370.1 160.52 374.78 159.07 377.95 158.08C390.33 154.24 390.67 145.2 388.7 138.85C386.64 132.21 380.79 125.09 368.71 128.84L356.18 132.73Z" />
		<path id="&lt;Compound Path&gt;" class="shp0" d="M1443.92 1603.26C1431.7 1606.22 1429.81 1618.87 1435.06 1640.45C1439.96 1660.62 1449.51 1668.98 1461.87 1665.98C1471.66 1663.6 1478.23 1656.59 1483.63 1650.31C1488.76 1652.23 1495.25 1657.27 1497.55 1662.42C1491.39 1672.34 1478.2 1683.07 1462.58 1686.87C1432.61 1694.15 1417.1 1670.54 1411.16 1646.11C1402.47 1610.32 1417.63 1590.39 1440.21 1584.9C1462.23 1579.55 1479.85 1588.96 1483.89 1605.58C1486.07 1614.53 1482.13 1619.39 1474.04 1621.36C1470.63 1622.19 1467.94 1622.24 1465.06 1622.19C1462.48 1610.33 1456.42 1600.22 1443.92 1603.26Z" />
		<g id="&lt;Group&gt;">
			<path id="&lt;Path&gt;" class="shp0" d="" />
			<path id="&lt;Path&gt;" class="shp0" d="" />
			<path id="&lt;Path&gt;" class="shp0" d="" />
			<path id="&lt;Path&gt;" class="shp0" d="M590.51 1645.43C590.51 1670.68 570.04 1691.15 544.8 1691.15C570.04 1691.15 590.51 1711.62 590.51 1736.87C590.51 1711.62 610.98 1691.15 636.23 1691.15C610.98 1691.15 590.51 1670.68 590.51 1645.43Z" />
			<path id="&lt;Path&gt;" class="shp0" d="" />
		</g>
		<g id="&lt;Group&gt;">
			<path id="&lt;Path&gt;" class="shp0" d="" />
			<path id="&lt;Path&gt;" class="shp0" d="" />
			<path id="&lt;Path&gt;" class="shp0" d="" />
			<path id="&lt;Path&gt;" class="shp0" d="M687.4 374.83C687.4 395.05 671.01 411.44 650.79 411.44C671.01 411.44 687.4 427.83 687.4 448.05C687.4 427.83 703.79 411.44 724.01 411.44C703.79 411.44 687.4 395.05 687.4 374.83Z" />
			<path id="&lt;Path&gt;" class="shp0" d="" />
		</g>
		<g id="&lt;Group&gt;">
			<path id="&lt;Path&gt;" class="shp0" d="" />
			<path id="&lt;Path&gt;" class="shp0" d="" />
			<path id="&lt;Path&gt;" class="shp0" d="" />
			<path id="&lt;Path&gt;" class="shp0" d="M1651.4 1658.39C1651.4 1678.61 1635 1695 1614.79 1695C1635 1695 1651.4 1711.39 1651.4 1731.61C1651.4 1711.39 1667.79 1695 1688.01 1695C1667.79 1695 1651.4 1678.61 1651.4 1658.39Z" />
			<path id="&lt;Path&gt;" class="shp0" d="" />
		</g>
		<g id="&lt;Group&gt;">
			<path id="&lt;Path&gt;" class="shp32" d="M625.75 894.3C625.75 912.97 610.62 928.1 591.96 928.1C573.31 928.1 558.17 912.97 558.17 894.3C558.17 875.64 573.31 860.51 591.96 860.51C610.62 860.51 625.75 875.64 625.75 894.3Z" />
		</g>
		<path id="&lt;Path&gt;" class="shp13" d="M604.26 862.85C610.13 868.93 613.75 877.19 613.75 886.3C613.75 904.97 598.62 920.1 579.96 920.1C575.62 920.1 571.48 919.25 567.67 917.76C568.75 918.88 569.91 919.93 571.14 920.9C576.88 925.4 584.1 934.77 591.96 934.77C611.32 934.77 604.31 926.33 609.41 923.25C619.2 917.33 625.75 906.58 625.75 894.3C625.75 879.98 616.83 867.77 604.26 862.85Z" />
		<g id="&lt;Group&gt;">
			<g id="&lt;Group&gt;">
				<path id="&lt;Compound Path&gt;" class="shp30" d="M1171.56 971.58C1211.65 979.24 1222.7 1010.44 1196.25 1041.25C1169.78 1072.09 1115.81 1090.87 1075.72 1083.21C1035.63 1075.56 1024.57 1044.36 1051.05 1013.53C1077.5 982.71 1131.47 963.93 1171.56 971.58Z" />
			</g>
			<path id="&lt;Path&gt;" class="shp33" d="M1165.24 978.94C1130.43 972.3 1083.57 988.59 1060.6 1015.35C1037.6 1042.13 1047.22 1069.21 1082.04 1075.86C1116.85 1082.5 1163.71 1066.21 1186.7 1039.43C1209.67 1012.67 1200.05 985.59 1165.24 978.94Z" />
		</g>
		<g id="&lt;Group&gt;" style="opacity: 0.6">
			<path id="&lt;Path&gt;" class="shp34" d="M891.08 925.97L891.08 888.07L1463.55 636.09L1463.55 673.98L891.08 925.97Z" />
		</g>
	</g>
</svg>