<svg xmlns="http://www.w3.org/2000/svg" viewBox="0 0 1000 1000" width="1000" height="1000">
	<defs>
		<linearGradient id="grd1" gradientUnits="userSpaceOnUse"  x1="503.121" y1="393.533" x2="488.229" y2="398.174">
			<stop offset="0" stop-color="#d77e77"  />
			<stop offset="1" stop-color="#ffb3a9" stop-opacity="0" />
		</linearGradient>
		<linearGradient id="grd2" gradientUnits="userSpaceOnUse"  x1="480.143" y1="348.409" x2="480.865" y2="370.571">
			<stop offset="0" stop-color="#dc9567"  />
			<stop offset="1" stop-color="#dc9567" stop-opacity="0" />
		</linearGradient>
		<linearGradient id="grd3" gradientUnits="userSpaceOnUse"  x1="494.899" y1="348.409" x2="494.176" y2="370.571">
			<stop offset="0" stop-color="#dc9567"  />
			<stop offset="1" stop-color="#dc9567" stop-opacity="0" />
		</linearGradient>
	</defs>
	<style>
		tspan { white-space:pre }
		.shp0 { fill: #cae8fa } 
		.shp1 { fill: #ffc900 } 
		.shp2 { fill: none;stroke: #ffc900 } 
		.shp3 { fill: #00446b } 
		.shp4 { fill: #004d79 } 
		.shp5 { fill: #003b58 } 
		.shp6 { fill: #e6bea6 } 
		.shp7 { fill: #e5ae8a } 
		.shp8 { fill: url(#grd1) } 
		.shp9 { fill: #a56052 } 
		.shp10 { fill: url(#grd2) } 
		.shp11 { fill: #64361a } 
		.shp12 { fill: #023b44 } 
		.shp13 { fill: url(#grd3) } 
		.shp14 { fill: #f2a09b } 
		.shp15 { fill: #46271e } 
		.shp16 { fill: #dbdbdb } 
		.shp17 { fill: #abadad } 
		.shp18 { fill: #eeeeee } 
		.shp19 { fill: #dfb091 } 
		.shp20 { fill: #ffffff } 
		.shp21 { fill: #e8e8e8 } 
		.shp22 { fill: #dd9c79 } 
		.shp23 { fill: #dd9677 } 
		.shp24 { fill: none;stroke: #008eae;stroke-width: 2 } 
	</style>
	<g id="OBJECTS">
		<g id="&lt;Group&gt;">
			<g id="&lt;Group&gt;">
				<path id="&lt;Path&gt;" class="shp0" d="M495.15 708.63C434.75 712.41 430.78 668.31 395.64 666.22C360.05 664.1 326.33 680.36 293.41 694.07C176.98 742.61 123.81 703.59 133.83 637.99C146.78 553.32 194.23 489.69 158.1 427.13C114 350.77 116.75 278.31 167.09 239.2C217.42 200.09 324.2 256.18 365.7 220.32C430.59 164.25 477.36 97.63 567.51 104.67C600.34 107.23 626.77 127.4 637.48 175.58C656.45 260.96 664.49 302.55 718.01 326.97C748.67 340.96 874.5 352.75 889.21 413.13C903.93 473.51 839.76 496.16 827.26 543.37C817.75 579.31 853.24 663.87 784.21 719.42C729.23 763.66 686.6 687.06 635.37 682.21C584.14 677.36 555.55 704.86 495.15 708.63Z" />
			</g>
			<g id="&lt;Group&gt;">
				<path id="&lt;Path&gt;" class="shp1" d="M395.53 274.96C391.83 274.96 380.97 274.96 377.63 274.96C377.63 268.87 381.64 263.93 386.58 263.93C391.52 263.93 395.53 268.87 395.53 274.96Z" />
				<path id="&lt;Path&gt;" class="shp1" d="M378.42 282.96L377.64 282.96L377.64 274.74L378.42 274.74L378.42 282.96Z" />
				<path id="&lt;Path&gt;" class="shp1" d="M380.32 282.96L379.55 282.96L379.55 274.74L380.32 274.74L380.32 282.96Z" />
				<path id="&lt;Path&gt;" class="shp1" d="M382.23 282.96L381.45 282.96L381.45 274.74L382.23 274.74L382.23 282.96Z" />
				<path id="&lt;Path&gt;" class="shp1" d="M384.13 282.96L383.36 282.96L383.36 274.74L384.13 274.74L384.13 282.96Z" />
				<path id="&lt;Path&gt;" class="shp1" d="M386.04 282.96L385.26 282.96L385.26 274.74L386.04 274.74L386.04 282.96Z" />
				<path id="&lt;Path&gt;" class="shp1" d="M387.94 282.96L387.17 282.96L387.17 274.74L387.94 274.74L387.94 282.96Z" />
				<path id="&lt;Path&gt;" class="shp1" d="M389.85 282.96L389.08 282.96L389.08 274.74L389.85 274.74L389.85 282.96Z" />
				<path id="&lt;Path&gt;" class="shp1" d="M391.75 282.96L390.98 282.96L390.98 274.74L391.75 274.74L391.75 282.96Z" />
				<path id="&lt;Path&gt;" class="shp1" d="M393.66 282.96L392.89 282.96L392.89 274.74L393.66 274.74L393.66 282.96Z" />
				<path id="&lt;Path&gt;" class="shp1" d="M395.56 282.96L394.79 282.96L394.79 274.74L395.56 274.74L395.56 282.96Z" />
			</g>
			<path id="&lt;Path&gt;" class="shp1" d="M389 262.82C389 264.15 387.93 265.23 386.6 265.23C385.27 265.23 384.19 264.15 384.19 262.82C384.19 261.49 385.27 260.41 386.6 260.41C387.93 260.41 389 261.49 389 262.82Z" />
			<path id="&lt;Path&gt;" class="shp1" d="M387.83 259.54C387.83 260.22 387.28 260.77 386.6 260.77C385.92 260.77 385.37 260.22 385.37 259.54C385.37 258.86 385.92 258.31 386.6 258.31C387.28 258.31 387.83 258.86 387.83 259.54Z" />
			<path id="&lt;Path&gt;" class="shp2" d="M-474.37 -802.19L-474.37 -822.26" />
			<path id="&lt;Path&gt;" class="shp3" d="M483.8 274.66L372 233.86L483.8 193.06L595.59 233.86L483.8 274.66Z" />
			<path id="&lt;Path&gt;" class="shp4" d="M416.98 458.55C462.22 462.86 539.36 472.77 561.11 482.7C562.56 514.17 563.81 602.92 564.85 748.95L423.78 748.95C419.96 587.57 417.69 490.77 416.98 458.55Z" />
			<path id="&lt;Path&gt;" class="shp5" d="M492.63 598.69C513.07 560.41 535.42 506.21 543.4 477.22C513.14 469.78 471.92 464.43 440.06 460.95C444.9 479.94 466.41 549.79 492.63 598.69Z" />
			<path id="&lt;Path&gt;" class="shp6" d="M492.39 583.16C508.45 554.64 533.09 486.16 537.89 475.81C514.08 470.47 475.81 464.68 446.45 461.66C450.58 471.5 467.53 535.11 492.39 583.16Z" />
			<g id="&lt;Group&gt;">
				<path id="&lt;Path&gt;" class="shp6" d="M491.16 485.13C474.49 485.13 467.52 471.51 467.52 460.6L467.52 425.15L514.79 425.15L514.79 472.99C514.79 483.08 507.82 485.13 491.16 485.13Z" />
			</g>
			<path id="&lt;Path&gt;" class="shp7" d="M514.79 456.3L514.79 425.15L467.52 425.15L467.52 456.18C474.79 458.56 493.73 463.19 514.79 456.3Z" />
			<g id="&lt;Group&gt;">
				<g id="&lt;Group&gt;">
					<path id="&lt;Path&gt;" class="shp6" d="M445.14 382.17C449.32 392.99 449.24 401.32 442.17 404.45C435.11 407.59 419.85 403.46 415.67 392.64C411.49 381.81 413.83 370.5 420.9 367.37C427.96 364.24 440.97 371.35 445.14 382.17Z" />
					<path id="&lt;Path&gt;" class="shp6" d="M427.7 395.02C433.38 432.07 459.79 456.94 497.06 453.65C530.97 450.66 554.42 403.27 555.37 360.03C556.32 316.8 533.16 282.6 492.22 283.23C429.51 284.2 415.74 316.93 427.7 395.02Z" />
					<path id="&lt;Path&gt;" class="shp6" d="M535.38 378.72C531.07 389.49 531.05 397.82 538.08 401.04C545.09 404.26 560.41 400.33 564.71 389.56C569.03 378.78 566.83 367.45 559.8 364.22C552.78 361 539.68 367.95 535.38 378.72Z" />
					<path id="&lt;Path&gt;" class="shp8" d="M481.08 374.81C491.01 372.82 499.38 374.45 501.24 381.82C503.1 389.19 493.05 393.68 484.81 394.65C476.56 395.62 473.35 376.36 481.08 374.81Z" />
					<g id="&lt;Group&gt;">
						<path id="&lt;Path&gt;" class="shp9" d="M476.71 376.2C480.48 374.64 484.57 373.67 488.77 373.75C492.89 373.85 497.44 374.78 500.62 378.25C502.15 379.98 502.83 382.71 502.05 384.94C501.33 387.19 499.84 388.91 498.2 390.24C494.88 392.94 490.95 394.42 487.03 395.48C490.64 393.61 494.21 391.61 497.03 388.94C498.4 387.59 499.59 386.05 500.01 384.36C500.5 382.7 500.05 381 498.9 379.69C497.79 378.35 496.1 377.41 494.34 376.74C492.56 376.05 490.63 375.7 488.68 375.49C484.75 375.13 480.72 375.47 476.71 376.2Z" />
					</g>
					<g id="&lt;Group&gt;">
						<path id="&lt;Path&gt;" class="shp10" d="M476.75 347.95C477.66 354.76 481.48 374.75 462.31 376.34C449.54 377.41 444.67 370.22 447.7 354.78C461.23 350.82 470.91 348.55 476.75 347.95Z" />
						<path id="&lt;Path&gt;" class="shp11" d="M470.39 374.36C470.03 375.76 468.6 376.6 467.2 376.24C465.8 375.88 464.96 374.45 465.33 373.05C465.69 371.65 467.12 370.81 468.51 371.18C469.91 371.54 470.75 372.97 470.39 374.36Z" />
						<path id="&lt;Path&gt;" class="shp12" d="M472.62 346.73C450.64 348.26 438.59 356.99 452.55 356.88C466.52 356.77 487.11 345.72 472.62 346.73Z" />
					</g>
					<g id="&lt;Group&gt;">
						<path id="&lt;Path&gt;" class="shp13" d="M498.29 347.95C497.38 354.76 493.56 374.75 512.73 376.34C525.5 377.41 530.37 370.22 527.34 354.78C513.81 350.82 504.13 348.55 498.29 347.95Z" />
						<path id="&lt;Path&gt;" class="shp11" d="M504.65 374.36C505.02 375.76 506.44 376.6 507.84 376.24C509.24 375.88 510.08 374.45 509.72 373.05C509.35 371.65 507.92 370.81 506.53 371.18C505.13 371.54 504.29 372.97 504.65 374.36Z" />
						<path id="&lt;Path&gt;" class="shp12" d="M502.43 346.73C524.4 348.26 536.45 356.99 522.49 356.88C508.52 356.77 487.94 345.72 502.43 346.73Z" />
					</g>
					<path id="&lt;Path&gt;" class="shp14" d="M451.19 381.45C451.19 382.92 447.37 384.12 442.65 384.12C437.93 384.12 434.1 382.92 434.1 381.45C434.1 379.97 437.93 378.78 442.65 378.78C447.37 378.78 451.19 379.97 451.19 381.45Z" />
					<path id="&lt;Path&gt;" class="shp14" d="M541.3 381.45C541.3 382.92 537.48 384.12 532.76 384.12C528.04 384.12 524.21 382.92 524.21 381.45C524.21 379.97 528.04 378.78 532.76 378.78C537.48 378.78 541.3 379.97 541.3 381.45Z" />
				</g>
				<g id="&lt;Group&gt;">
					<path id="&lt;Path&gt;" class="shp15" d="M469.24 411.95C468.73 413.72 469.11 415.52 469.67 417.15C470.33 418.78 471.16 420.31 472.28 421.61C474.46 424.27 477.5 426.09 480.81 427.05C482.48 427.46 484.16 427.91 485.92 428C487.66 428.3 489.44 428.15 491.21 428.21C492.99 428.16 494.77 427.94 496.58 427.84C498.37 427.61 500.15 427.3 501.99 427.13C500.29 427.79 498.53 428.32 496.78 428.92C494.99 429.29 493.19 429.75 491.34 429.96C487.65 430.38 483.84 430.22 480.15 429.19C476.51 428.1 473.04 425.89 470.89 422.66C469.76 421.1 469.06 419.28 468.62 417.44C468.36 415.6 468.24 413.55 469.24 411.95Z" />
				</g>
			</g>
			<path id="&lt;Path&gt;" class="shp12" d="M560.07 330.6C561.37 341.12 561.63 349.06 560.83 354.42C560.03 359.78 557.4 372.52 552.95 392.64C555.99 361.97 555.98 342.7 552.92 334.83C554.45 343.56 553.99 356.28 545.87 369.91C546.79 350.51 542.86 336.06 534.08 326.56C537.45 336.88 538.53 343.82 537.34 347.39C531.81 332.56 509.68 312.45 478.26 328.03C494.01 328.03 499.88 332.48 495.86 341.36C496.86 336 491.83 333.82 480.77 334.82C464.18 336.33 438.79 344.88 429.09 331.06C427.38 336.36 426.28 344.52 425.79 355.51C425.3 366.51 425.71 378.9 427.01 392.68C413.86 377.13 412 361.76 410.86 337.95C409.79 347.41 406.59 350.85 401.24 348.25C406.59 347.03 408.65 342 407.43 333.14C405.59 319.87 410.17 302.24 422.53 296.26C424.8 277.31 433.74 264.98 449.37 259.27C472.81 250.69 509.86 260.44 517.74 258.39C523.31 256.94 526.42 254.99 527.06 252.52C527.59 255.58 526.18 258.19 522.84 260.35C519.49 262.52 516.72 263.48 514.52 263.24C526.1 265.33 535.53 269.4 542.81 275.44C558.29 288.27 563.79 307.04 564.02 319.41C564.17 327.65 565.08 334.21 566.76 339.1C563.48 339.06 561.25 336.23 560.07 330.6Z" />
			<path id="&lt;Path&gt;" class="shp12" d="M470.87 328.74C473.2 330.96 508.26 324.55 518.16 333.75C513.03 326.65 502.78 320.94 489.85 320.94C481.23 320.94 474.91 323.54 470.87 328.74Z" />
			<path id="&lt;Path&gt;" class="shp4" d="M537.26 277.61C502.86 272.22 468.02 272.16 432.74 277.61L432.74 229.79C468.02 221.3 502.86 221.31 537.26 229.79L537.26 277.61Z" />
			<path id="&lt;Path&gt;" class="shp4" d="M595.59 230.2L483.8 189.4L483.8 193.06L595.59 233.86L595.59 230.2Z" />
			<path id="&lt;Path&gt;" class="shp3" d="M372 230.2L483.8 189.4L483.8 193.06L372 233.86L372 230.2Z" />
			<path id="&lt;Path&gt;" class="shp6" d="M318.35 260.54C323.84 301.27 331.43 341.36 335.87 374.69C338.67 395.78 301.14 412.62 296.2 379.62C291.26 346.62 287.5 283.52 287.1 269.28C286.69 255.05 316.04 243.35 318.35 260.54Z" />
			<g id="&lt;Group&gt;">
				<path id="&lt;Path&gt;" class="shp16" d="M241.16 313.08C241.17 322.65 236.82 326.15 224.41 323.59C212.11 321.05 199.72 308.94 200.78 297.4C201.54 289 208.49 287.21 214.12 288.22C219.75 289.22 241.13 294.96 241.16 313.08Z" />
				<g id="&lt;Group&gt;">
					<path id="&lt;Path&gt;" class="shp17" d="M204.41 310C203.2 308.3 202.22 306.42 201.62 304.4C201.03 302.38 200.76 300.18 201.39 298.03C202.07 295.87 204.08 294.21 206.25 293.73C208.41 293.21 210.62 293.35 212.72 293.74C216.97 294.47 220.89 296.54 224.23 299.2C227.53 301.92 230.37 305.25 232.21 309.21C232.64 310.21 233.02 311.24 233.25 312.34C233.51 313.42 233.63 314.58 233.44 315.81C233.27 317.01 232.39 318.43 231.09 318.89C229.85 319.4 228.63 319.32 227.52 319.15C225.29 318.75 223.31 317.84 221.45 316.78C219.58 315.73 217.86 314.45 216.29 313.01C214.72 311.57 213.29 309.97 212.1 308.18C211.52 307.29 210.97 306.36 210.58 305.32C210.38 304.8 210.24 304.24 210.21 303.64C210.17 303.06 210.29 302.33 210.8 301.82C211.3 301.31 211.99 301.18 212.56 301.2C213.15 301.2 213.7 301.35 214.21 301.53C215.25 301.89 216.16 302.45 217.01 303.08C218.71 304.35 220.1 305.97 221.21 307.72C219.92 306.09 218.42 304.63 216.71 303.52C215.85 302.97 214.94 302.5 213.99 302.25C213.08 301.98 211.95 301.94 211.51 302.49C211.06 303.01 211.26 304.05 211.63 304.91C212.01 305.8 212.55 306.65 213.14 307.47C214.33 309.1 215.75 310.55 217.31 311.85C220.42 314.35 224 316.67 227.8 317.35C228.72 317.49 229.67 317.49 230.35 317.17C231.05 316.9 231.4 316.3 231.56 315.48C231.79 313.79 231.16 311.78 230.38 310.02C227.05 302.83 220.24 297.03 212.42 295.24C210.46 294.78 208.44 294.59 206.54 294.95C204.64 295.31 203.02 296.54 202.31 298.35C201.62 300.17 201.7 302.28 202.13 304.26C202.59 306.26 203.38 308.19 204.41 310Z" />
				</g>
				<path id="&lt;Path&gt;" class="shp18" d="M220.55 280.18C213.81 284.02 208.78 287.06 205.46 289.29C219.18 288.73 237.14 300.2 240.83 316.71C246.01 307.32 234.08 287.29 220.55 280.18Z" />
				<path id="&lt;Path&gt;" class="shp19" d="M303.49 268.61C295.53 271.98 280.68 269.02 277.65 265.28C278.89 260.06 283.94 253.85 292.77 246.65L303.49 268.61Z" />
				<path id="&lt;Path&gt;" class="shp20" d="M239.27 321.13C241.89 314.64 242.78 292.65 208.46 274.96C221.97 268.65 258.75 245.22 273.21 230.09C282.74 220.12 288.84 214.03 299.36 199.96C303.36 194.62 314.54 177.13 332.91 147.51C347.16 144.87 364.98 172.55 357.25 184.05C345.66 192.88 317.95 219.18 299.86 240.18C281.24 261.78 261.05 288.77 239.27 321.13Z" />
				<path id="&lt;Path&gt;" class="shp21" d="M258.1 243.21C264.12 238.57 269.43 234.05 273.21 230.09C282.47 220.41 288.5 214.36 298.48 201.14C308.16 205.64 314.44 212.78 318.04 220.47C311.58 227.11 305.29 233.88 299.86 240.18C291.81 249.52 283.37 260.2 275.43 270.68C273.97 260.55 269.54 251.16 258.1 243.21Z" />
				<path id="&lt;Path&gt;" class="shp19" d="M282.01 212.39C282.65 210.28 285.58 203.11 290.1 201.64C294.62 200.16 299.53 202.89 302.94 209.3C305.81 214.69 306.42 220.5 302.02 224.26C299.54 226.39 297.09 226.09 294.67 223.37L282.01 212.39Z" />
				<path id="&lt;Path&gt;" class="shp22" d="M273.29 219.75C275.73 215.53 279.91 210.48 285 211.33C290.08 212.18 295.54 217.4 297.96 222.5C300.38 227.61 297.54 231.88 294.63 232.91C292.69 233.6 290.74 233.64 288.79 233.04L273.29 219.75Z" />
				<path id="&lt;Path&gt;" class="shp23" d="M263.68 229.03C264.53 225.78 266.41 221.13 269.26 219.61C271.82 218.23 274.47 217.86 277.92 220.12C280.14 221.57 287.92 227.3 290.11 231.94C291.37 234.61 291.73 238.19 288.3 240.82C286.15 242.48 283.39 242.52 280.02 240.96L263.68 229.03Z" />
				<path id="&lt;Path&gt;" class="shp22" d="M260.44 241.56C262.97 243.79 265.92 246.06 269.78 248.11C273.45 250.07 277.31 251.08 279.98 248.43C283.54 244.92 281.75 240.21 278.74 236.41C274.91 231.58 266.28 226.92 261.63 228.84C259.14 229.87 257.78 231.04 256.65 232.87C255.04 235.48 255.25 239.76 257.2 243.91C258.06 243.34 259.14 242.56 260.44 241.56Z" />
				<path id="&lt;Path&gt;" class="shp6" d="M320.65 236.54C319.91 233.47 318.59 227.96 318.05 225.15C317.26 220.98 316.37 221.36 312.23 220.81C301.81 219.42 297.02 217.85 294.67 217.32C292.31 216.79 285.47 215.38 286.53 224.39C286.95 227.98 290.8 231.17 298.06 233.95C290.64 244.23 288.95 253.19 293 260.81C299.07 272.25 311.56 273.08 318.06 262.58C323.79 253.33 322.39 243.82 320.65 236.54Z" />
			</g>
			<path id="&lt;Path&gt;" class="shp4" d="M440.19 462.09C408.56 444.52 382.23 429.54 361.2 417.16C330.6 399.15 302.11 431.74 314.69 447.51C328.53 464.87 365.09 495.45 424.35 539.25L440.19 462.09Z" />
			<path id="&lt;Path&gt;" class="shp4" d="M539.91 559.25C553.93 597.98 567.48 632.24 580.55 662.04C596.77 699.05 636.72 669.93 630.27 642.44C622.49 609.32 599.45 556.03 561.13 482.58L539.91 559.25Z" />
			<path id="&lt;Path&gt;" class="shp4" d="M325.6 269.54C321.21 281.75 290.69 296.15 282.15 287.85C289.74 398.99 308.75 439.97 314.69 447.51C321.08 455.65 366.66 440.09 362.7 419.9C355.38 382.56 331.7 297.61 325.6 269.54Z" />
			<path id="&lt;Path&gt;" class="shp20" d="M527.31 473.6C515.1 502.24 464.81 503.03 457.17 462.84C453.5 462.42 449.91 462.02 446.45 461.66C450.58 471.5 467.53 535.11 492.39 583.16C508.45 554.64 533.09 486.16 537.89 475.81C534.62 475.08 531.06 474.34 527.31 473.6Z" />
			<path id="&lt;Path&gt;" class="shp4" d="M578.87 647.7C582.35 700.18 584.21 733.97 584.45 749.06C593.35 749.06 631.07 749.1 633.56 749.1C633.19 704.96 632.73 655.73 630.26 644.18C628.61 636.48 611.48 637.65 578.87 647.7Z" />
			<g id="&lt;Group&gt;">
				<path id="&lt;Path&gt;" class="shp24" d="M851.51 581.37C851.51 583.1 850.11 584.5 848.39 584.5C846.66 584.5 845.26 583.1 845.26 581.37C845.26 579.64 846.66 578.24 848.39 578.24C850.11 578.24 851.51 579.64 851.51 581.37Z" />
				<path id="&lt;Path&gt;" class="shp24" d="M904.46 642.49C904.46 649.27 898.96 654.77 892.18 654.77C885.4 654.77 879.91 649.27 879.91 642.49C879.91 635.71 885.4 630.22 892.18 630.22C898.96 630.22 904.46 635.71 904.46 642.49Z" />
				<path id="&lt;Path&gt;" class="shp24" d="M891.46 603.51C891.46 606.03 889.41 608.08 886.89 608.08C884.36 608.08 882.32 606.03 882.32 603.51C882.32 600.98 884.36 598.94 886.89 598.94C889.41 598.94 891.46 600.98 891.46 603.51Z" />
				<path id="&lt;Path&gt;" class="shp24" d="M883.56 529.44C883.56 531.57 881.84 533.3 879.71 533.3C877.58 533.3 875.85 531.57 875.85 529.44C875.85 527.31 877.58 525.58 879.71 525.58C881.84 525.58 883.56 527.31 883.56 529.44Z" />
				<path id="&lt;Path&gt;" class="shp24" d="M144.21 686.46C144.21 689.5 141.75 691.97 138.7 691.97C135.66 691.97 133.19 689.5 133.19 686.46C133.19 683.41 135.66 680.95 138.7 680.95C141.75 680.95 144.21 683.41 144.21 686.46Z" />
				<path id="&lt;Path&gt;" class="shp24" d="M77 736.59C77 741.16 73.3 744.86 68.73 744.86C64.17 744.86 60.47 741.16 60.47 736.59C60.47 732.03 64.17 728.33 68.73 728.33C73.3 728.33 77 732.03 77 736.59Z" />
				<path id="&lt;Path&gt;" class="shp24" d="M154.68 787.55C154.68 790.44 152.34 792.79 149.45 792.79C146.56 792.79 144.21 790.44 144.21 787.55C144.21 784.66 146.56 782.32 149.45 782.32C152.34 782.32 154.68 784.66 154.68 787.55Z" />
			</g>
			<g id="&lt;Group&gt;">
				<path id="&lt;Path&gt;" class="shp20" d="M202.29 369.33L208.2 381.31L221.41 383.23L211.85 392.55L214.11 405.71L202.29 399.49L190.47 405.71L192.73 392.55L183.17 383.23L196.38 381.31L202.29 369.33Z" />
				<path id="&lt;Path&gt;" class="shp20" d="M190.03 463.44L191.48 466.36L194.7 466.83L192.37 469.1L192.92 472.31L190.03 470.8L187.15 472.31L187.7 469.1L185.37 466.83L188.59 466.36L190.03 463.44Z" />
				<path id="&lt;Path&gt;" class="shp20" d="M725.5 354.47L729.03 361.61L736.91 362.75L731.2 368.31L732.55 376.16L725.5 372.45L718.45 376.16L719.8 368.31L714.1 362.75L721.98 361.61L725.5 354.47Z" />
				<path id="&lt;Path&gt;" class="shp20" d="M620.55 298.93L623.51 304.93L630.14 305.89L625.35 310.56L626.48 317.16L620.55 314.04L614.63 317.16L615.76 310.56L610.97 305.89L617.59 304.93L620.55 298.93Z" />
				<path id="&lt;Path&gt;" class="shp20" d="M794.45 442.53L798.88 451.52L808.8 452.96L801.62 459.95L803.32 469.83L794.45 465.16L785.58 469.83L787.27 459.95L780.1 452.96L790.01 451.52L794.45 442.53Z" />
			</g>
		</g>
	</g>
</svg>